<svg xmlns="http://www.w3.org/2000/svg" viewBox="0 0 51.53 40"><path d="M51.429 21.858L43.5 4.4a1.12 1.12 0 0 0-1.022-.662h-11.9a4.971 4.971 0 0 0-9.632 0H9.049a1.108 1.108 0 0 0-1.022.628L.1 21.813a1.549 1.549 0 0 0-.1.494 9.05 9.05 0 0 0 18.1.022 1.063 1.063 0 0 0-.1-.46L10.789 5.984H20.9a4.936 4.936 0 0 0 3.739 3.806v23.25h-5.004a3.56 3.56 0 0 0-3.525 3.525v2.358A1.121 1.121 0 0 0 17.277 40H34.14a1.128 1.128 0 0 0 1.167-1.078v-2.357a3.56 3.56 0 0 0-3.525-3.525h-4.895V9.789a4.968 4.968 0 0 0 3.739-3.806h10.115l-7.208 15.886a1.1 1.1 0 0 0-.1.46 9.05 9.05 0 1 0 18.1 0 1.113 1.113 0 0 0-.104-.471zM9.049 7.623l6.186 13.629H2.863zm0 21.555A6.891 6.891 0 0 1 2.335 23.5h13.416a6.869 6.869 0 0 1-6.702 5.677zm24.013 7.387v1.19H18.355v-1.19a1.309 1.309 0 0 1 1.28-1.28h12.147a1.309 1.309 0 0 1 1.28 1.28zm-7.3-28.886a2.717 2.717 0 1 1 2.717-2.717 2.717 2.717 0 0 1-2.714 2.717zm22.9 13.573H36.3l6.181-13.629zm-6.186 7.926a6.89 6.89 0 0 1-6.713-5.68h13.42a6.87 6.87 0 0 1-6.702 5.679zm0 0" fill="#cbcbcb"/></svg>