<svg id="Group_223" data-name="Group 223" xmlns="http://www.w3.org/2000/svg" viewBox="0 0 14 14"><defs><style>.cls-1{fill:#32435f}</style></defs><path id="Path_2053" data-name="Path 2053" class="cls-1" d="M11.949 2.051a7 7 0 1 0-9.9 9.9 7 7 0 1 0 9.9-9.9zm-.563 9.336a6.2 6.2 0 0 1-8.773-8.774 6.2 6.2 0 1 1 8.774 8.774z"/><path id="Path_2054" data-name="Path 2054" class="cls-1" d="M135.211 129.042a.4.4 0 0 0-.563 0l-2.522 2.522-2.522-2.522a.4.4 0 1 0-.563.563l2.522 2.522-2.522 2.522a.4.4 0 0 0 .28.681.388.388 0 0 0 .28-.118l2.522-2.522 2.522 2.522a.4.4 0 0 0 .28.118.383.383 0 0 0 .28-.118.4.4 0 0 0 0-.563l-2.516-2.522 2.522-2.522a.4.4 0 0 0 0-.563z" transform="translate(-125.127 -125.127)"/></svg>