<svg xmlns="http://www.w3.org/2000/svg" viewBox="0 0 112.161 30"><defs><style>.cls-2{fill:#2c2e2c}.cls-3{fill:#617171}</style></defs><g id="Upost" transform="translate(0 76.898)"><g id="g12" transform="translate(0 -76.898)"><path id="path14" d="M19.713-59.676L9.78-61.924A5.5 5.5 0 0 1 5.633-68.5a5.5 5.5 0 0 1 6.574-4.148 5.5 5.5 0 0 1 4.148 6.573 5.478 5.478 0 0 1-2.433 3.437.138.138 0 0 0-.058.112.137.137 0 0 0 .1.133l4.419 1a.274.274 0 0 0 .279-.1 9.59 9.59 0 0 0 1.948-5.794 9.617 9.617 0 0 0-9.044-9.6c-.045 0-.318-.013-.411-.014a10.936 10.936 0 0 0-6.467 1.985A10.992 10.992 0 0 0 1.989-59.6l8.837 12.62a.207.207 0 0 0 .167.085.206.206 0 0 0 .167-.086l8.678-12.379a.206.206 0 0 0 .035-.115.206.206 0 0 0-.159-.2" transform="translate(0 76.898)" fill="#fabc26"/><path id="path16" class="cls-2" d="M69.019-61.753a.213.213 0 0 1 .212.106l2.946 5.028h.141l2.506-4.958a.3.3 0 0 1 .3-.176h1.8a.19.19 0 0 1 .176.282L71.913-52.3a.309.309 0 0 1-.3.159h-1.764c-.194 0-.212-.124-.141-.265l1.392-2.378-4.164-6.74c-.071-.123-.018-.229.106-.229h1.976" transform="translate(-40.804 67.662)"/><path id="path18" class="cls-2" d="M98.165-61.753a.223.223 0 0 1 .247.247v3.773l3.97-3.879a.71.71 0 0 1 .458-.141h2.153c.159 0 .212.141.088.265l-4.217 3.952 4.482 5.134c.123.123.053.265-.106.265h-2.117a.537.537 0 0 1-.441-.177l-3.358-3.961-.912.848v3.042a.223.223 0 0 1-.247.247h-1.552a.223.223 0 0 1-.247-.247v-9.122a.223.223 0 0 1 .247-.247h1.553" transform="translate(-58.771 67.662)"/><path id="path20" class="cls-2" d="M127.183-56.637a1.544 1.544 0 0 0 1.694-1.605 1.527 1.527 0 0 0-1.694-1.57h-2.559v3.176zm0-5.117a3.565 3.565 0 0 1 3.74 3.511 3.551 3.551 0 0 1-3.74 3.546h-2.559v2.311a.223.223 0 0 1-.247.247h-1.553a.223.223 0 0 1-.247-.247v-9.122a.223.223 0 0 1 .247-.247h4.358" transform="translate(-74.757 67.662)"/><path id="path22" class="cls-2" d="M156-61.753a.223.223 0 0 1 .247.247v9.122a.224.224 0 0 1-.247.247h-1.553a.224.224 0 0 1-.247-.247v-7.446h-4.27v7.446a.223.223 0 0 1-.247.247h-1.553a.223.223 0 0 1-.247-.247v-9.122a.223.223 0 0 1 .247-.247H156" transform="translate(-90.191 67.662)"/><path id="path24" class="cls-2" d="M176.058-57.158a2.9 2.9 0 0 0 3 3.017 2.891 2.891 0 0 0 2.983-3.017 2.886 2.886 0 0 0-2.983-3.035 2.89 2.89 0 0 0-3 3.035m3-4.958a4.96 4.96 0 0 1 5.047 4.958 4.934 4.934 0 0 1-5.047 4.94 4.938 4.938 0 0 1-5.063-4.94 4.963 4.963 0 0 1 5.063-4.958" transform="translate(-106.115 67.883)"/><path id="path26" class="cls-2" d="M209.607-54.06v-7.446a.223.223 0 0 1 .247-.247h1.517a.223.223 0 0 1 .247.247v7.446h3.017v-7.446a.223.223 0 0 1 .247-.247h1.518a.223.223 0 0 1 .247.247v9.122a.223.223 0 0 1-.247.247h-11.574a.241.241 0 0 1-.247-.247v-9.122a.223.223 0 0 1 .247-.247h1.517a.223.223 0 0 1 .247.247v7.446h3.017" transform="translate(-124.768 67.662)"/><path id="path28" class="cls-2" d="M247.461-61.753a.223.223 0 0 1 .247.247v1.447a.223.223 0 0 1-.247.247h-3.07v7.428a.224.224 0 0 1-.247.247h-1.553a.223.223 0 0 1-.247-.247v-7.428h-3.07a.223.223 0 0 1-.247-.247v-1.447a.223.223 0 0 1 .247-.247h8.187" transform="translate(-145.776 67.662)"/><path id="path30" class="cls-2" d="M263.883-55.9h3.352l-1.552-3.952h-.194zm4.058 1.853h-4.8l-.67 1.694a.3.3 0 0 1-.3.212h-1.747c-.176 0-.229-.088-.176-.247l4.164-9.228a.221.221 0 0 1 .23-.141h2.011a.221.221 0 0 1 .229.141l3.97 9.192a.2.2 0 0 1-.194.282h-1.676a.382.382 0 0 1-.371-.247l-.671-1.658" transform="translate(-158.708 67.662)"/><path id="path32" class="cls-3" d="M70.469-22.41v-4.118h2.709v.474h-2.165v3.644h-.544" transform="translate(-42.977 46.178)"/><path id="path34" class="cls-3" d="M79.984-24.628c0 1.03.561 1.695 1.436 1.695s1.424-.671 1.424-1.695-.562-1.672-1.437-1.672c-.972 0-1.423.793-1.423 1.672zm3.4-.029a1.962 1.962 0 0 1-1.974 2.192 1.971 1.971 0 0 1-1.974-2.2 1.912 1.912 0 0 1 1.968-2.111 1.917 1.917 0 0 1 1.98 2.122" transform="translate(-48.448 46.332)"/><path id="path36" class="cls-3" d="M95.013-22.41h-.544v-3.644h-1.523l-.081 2.319c-.029.827-.33 1.411-.955 1.411a1.287 1.287 0 0 1-.394-.081v-.463a.7.7 0 0 0 .3.058c.3 0 .51-.162.539-1.209l.075-2.51h2.587v4.118" transform="translate(-55.814 46.178)"/><path id="path38" class="cls-3" d="M104.313-24.628c0 1.03.561 1.695 1.436 1.695s1.424-.671 1.424-1.695-.562-1.677-1.436-1.677c-.972.005-1.424.798-1.424 1.677zm3.4-.029a1.962 1.962 0 0 1-1.974 2.192 1.972 1.972 0 0 1-1.974-2.2 1.913 1.913 0 0 1 1.968-2.111 1.917 1.917 0 0 1 1.98 2.122" transform="translate(-63.286 46.332)"/><path id="path40" class="cls-3" d="M117.7-22.866h1.088c.55 0 1.088-.034 1.088-.757s-.631-.711-1.181-.711h-1zm0-1.9h.978c.463 0 1.019-.035 1.019-.653s-.481-.648-.967-.648h-1.03zm1.227-1.764c.683 0 1.314.272 1.314 1.029a.922.922 0 0 1-.608.885.984.984 0 0 1 .793 1.041c0 .948-.776 1.162-1.563 1.162h-1.7v-4.118h1.76" transform="translate(-71.46 46.178)"/><path id="path42" class="cls-3" d="M132.122-22.41h-.544v-1.926H129.4v1.926h-.544v-4.118h.544v1.717h2.176v-1.717h.544v4.118" transform="translate(-78.587 46.178)"/><path id="path44" class="cls-3" d="M142.021-26.007l-.712 1.9h1.413zm1.928 3.6h-.608l-.457-1.261h-1.731l-.469 1.261h-.579l1.621-4.118h.613l1.609 4.118" transform="translate(-85.447 46.178)"/><path id="path46" class="cls-3" d="M162.052-22.41h-.544v-3.644h-2.176v3.644h-.544v-4.118h3.265v4.118" transform="translate(-96.841 46.178)"/><path id="path48" class="cls-3" d="M171-24.628c0 1.03.561 1.695 1.435 1.695s1.424-.671 1.424-1.695-.559-1.672-1.431-1.672c-.973 0-1.428.793-1.428 1.672zm3.4-.029a1.962 1.962 0 0 1-1.974 2.192 1.971 1.971 0 0 1-1.974-2.2 1.912 1.912 0 0 1 1.968-2.111 1.917 1.917 0 0 1 1.979 2.122" transform="translate(-103.959 46.332)"/><path id="path50" class="cls-3" d="M183.863-26.527h.544v3.644h1.829v-3.644h.544v3.644h1.829v-3.644h.544v4.118h-5.291v-4.118" transform="translate(-112.133 46.178)"/><path id="path52" class="cls-3" d="M203.7-26.053h-1.38v3.644h-.544v-3.644h-1.383v-.474h3.307v.474" transform="translate(-122.214 46.178)"/><path id="path54" class="cls-3" d="M211.286-26.007l-.711 1.9h1.412zm1.928 3.6h-.608l-.457-1.261h-1.731l-.469 1.261h-.579l1.621-4.118h.613l1.61 4.118" transform="translate(-127.69 46.178)"/><path id="path56" class="cls-3" d="M229.662-24.873l1.806 2.464h-.694l-1.495-2.091-.683.648v1.446h-.544v-4.118h.544v2.042l2.09-2.042h.712l-1.737 1.654" transform="translate(-139.084 46.178)"/><path id="path58" class="cls-3" d="M240.3-24.555h1.047c.527 0 .932-.145.932-.752 0-.66-.469-.752-1.008-.752h-.971zm1.152-1.972c.788 0 1.372.33 1.372 1.186 0 .931-.6 1.244-1.406 1.244H240.3v1.689h-.544v-4.118h1.7" transform="translate(-146.218 46.178)"/><path id="path60" class="cls-3" d="M250.792-26.007l-.712 1.9h1.412zm1.928 3.6h-.608l-.457-1.261h-1.731l-.469 1.261h-.579l1.62-4.118h.614l1.609 4.118" transform="translate(-151.784 46.178)"/><path id="path62" class="cls-3" d="M261.88-28.345h-.521v-.584h.521zm-.538 4.471h-.542v-4.118h.544zm-.556-4.471h-.521v-.584h.521v.584" transform="translate(-158.729 47.643)"/><path id="path64" class="cls-3" d="M270.149-22.41h-.544v-1.926h-2.176v1.926h-.544v-4.118h.544v1.717h2.176v-1.717h.544v4.118" transform="translate(-162.767 46.178)"/><path id="path66" class="cls-3" d="M279.092-26.527h.544v3.488h.011l2.02-3.488h.689v4.118h-.544v-3.5h-.012l-2.026 3.5h-.683v-4.118" transform="translate(-170.212 46.178)"/></g></g></svg>