<svg xmlns="http://www.w3.org/2000/svg" viewBox="0 0 89.274 30"><g fill-rule="evenodd"><path d="M11.023 0L0 11.023V30l23.8-.021 11.049-10.952.01-18.622v-.4z" fill="#fcb614"/><path d="M65.839 14.124l-3.479 6.522v-6.9h-4.6v13.566h4.284a.732.732 0 0 0 .636-.37l3.62-6.528v6.9h4.592v-13.57h-4.41a.732.732 0 0 0-.643.38zm-1.591-1.656a4.1 4.1 0 0 1-4.219-4.023h2.841c0 .825.394 1.556 1.377 1.556 1.018 0 1.377-.731 1.377-1.556h2.846a4.1 4.1 0 0 1-4.222 4.022zM43.07 13.744h-11.9v4.055h3.6v9.513h4.7v-9.513h3.6zm9.349 13.568h4.464l-4.888-13.18a.6.6 0 0 0-.558-.387h-4.423a.6.6 0 0 0-.558.387l-4.886 13.18h4.464a.306.306 0 0 0 .291-.21l.5-1.506h4.813l.5 1.506a.306.306 0 0 0 .281.21zm-4.521-5.113l1.327-4.029 1.328 4.029zm36.49-8.117l-3.257 5.5-3.257-5.5a.69.69 0 0 0-.594-.338h-4.293v13.568h4.7v-6.407l2.091 3.425a.366.366 0 0 0 .312.175h2.08a.366.366 0 0 0 .312-.175l2.089-3.425v6.407h4.7V13.744h-4.289a.69.69 0 0 0-.594.338zm-74.881-.343h4.543v4.836h3.76v-4.837h4.544v13.574h-4.543v-4.837H14.05v4.836H9.507zM2.77 27.312h4.857V13.738H2.77z" fill="#221f20"/></g></svg>