<svg xmlns="http://www.w3.org/2000/svg" width="40" height="40"><g data-name="Group 251"><g data-name="Rectangle 1540" fill="#fff" stroke="#707070"><path stroke="none" d="M11.2 3.2h24V40h-24z"/><path fill="none" d="M11.7 3.7h23v35.8h-23z"/></g><path d="M34.61 0H5.39A5.39 5.39 0 0 0-.002 5.39v29.22A5.39 5.39 0 0 0 5.39 40h14.408l.025-14.294h-3.711a.876.876 0 0 1-.876-.873l-.018-4.607a.876.876 0 0 1 .876-.88h3.704v-4.452c0-5.167 3.155-7.98 7.764-7.98h3.782a.876.876 0 0 1 .876.876v3.885a.876.876 0 0 1-.876.876h-2.317c-2.506 0-2.992 1.191-2.992 2.939v3.854h5.508a.876.876 0 0 1 .87.979l-.546 4.607a.876.876 0 0 1-.87.773H26.06L26.035 40h8.575a5.39 5.39 0 0 0 5.388-5.39V5.39A5.39 5.39 0 0 0 34.61 0z" fill="#475993"/></g></svg>