<svg xmlns="http://www.w3.org/2000/svg" viewBox="0 0 55.331 35"><defs><style>.cls-1{fill:#eb9772}</style></defs><g id="fast-delivery" transform="translate(0 -94.066)"><g id="Group_152" data-name="Group 152" transform="translate(0 94.066)"><g id="Group_151" data-name="Group 151"><path id="Path_2036" data-name="Path 2036" class="cls-1" d="M54.431 110.224a3.815 3.815 0 0 0-2.259-1.3l-.423-5.735a.866.866 0 0 0 .845-.716l.163-.924a3.267 3.267 0 0 0-.668-2.683 3.154 3.154 0 0 0-2.468-1.107H43.26l.31-1.756a1.665 1.665 0 0 0-.349-1.366 1.641 1.641 0 0 0-1.265-.575H10.647a2.024 2.024 0 0 0-1.94 1.64l-2.77 15.71a.866.866 0 1 0 1.706.3l2.77-15.71a.294.294 0 0 1 .234-.208h31.2l-2.754 15.617a.866.866 0 0 0 1.706.3l.2-1.132h10.363a2.218 2.218 0 0 1 1.742.753 2.143 2.143 0 0 1 .483 1.211h-2.878a.866.866 0 0 0-.853.716l-.326 1.848a2.466 2.466 0 0 0 .509 2.024 2.418 2.418 0 0 0 1.867.841h.816l-.672 3.812h-2.288a4.549 4.549 0 0 0-.979-2.059 4.687 4.687 0 0 0-3.671-1.638 6.668 6.668 0 0 0-5.74 3.7h-.348l1.124-6.376a.866.866 0 1 0-1.706-.3l-1.177 6.677H21.227a4.55 4.55 0 0 0-.979-2.059 4.688 4.688 0 0 0-3.671-1.638 6.668 6.668 0 0 0-5.74 3.7h-4.97l.346-1.964h3.894a.866.866 0 0 0 0-1.733H.866a.866.866 0 0 0 0 1.733h3.588l-.31 1.756a1.665 1.665 0 0 0 .349 1.366 1.641 1.641 0 0 0 1.265.575h4.514a4.789 4.789 0 0 0 1 3.907 4.688 4.688 0 0 0 3.671 1.638 6.657 6.657 0 0 0 6.288-5.336c.012-.07.022-.139.032-.208h17.546a4.788 4.788 0 0 0 1 3.907 4.688 4.688 0 0 0 3.671 1.638 6.657 6.657 0 0 0 6.288-5.336c.012-.07.022-.139.032-.208h2.975a.866.866 0 0 0 .853-.716l1.629-9.241a4.015 4.015 0 0 0-.826-3.345zM41.3 108.852l1-5.66h7.709l.417 5.66zm9.746-7.6l-.037.208h-8.401l.346-1.964h6.666a1.451 1.451 0 0 1 1.141.487 1.522 1.522 0 0 1 .29 1.268zm-31.517 22.177a4.859 4.859 0 0 1-4.582 3.9 2.985 2.985 0 0 1-2.344-1.019 3.1 3.1 0 0 1-.609-2.585 4.86 4.86 0 0 1 4.582-3.9 2.985 2.985 0 0 1 2.344 1.019 3.1 3.1 0 0 1 .609 2.585zm28.536 0a4.86 4.86 0 0 1-4.582 3.9 2.985 2.985 0 0 1-2.344-1.019 3.1 3.1 0 0 1-.609-2.585 4.859 4.859 0 0 1 4.582-3.9 2.985 2.985 0 0 1 2.344 1.019 3.1 3.1 0 0 1 .608 2.585zm4.963-7.184h-1.122a.676.676 0 0 1-.539-.222.733.733 0 0 1-.13-.61l.2-1.132h1.937z" transform="translate(0 -94.066)"/></g></g><g id="Group_154" data-name="Group 154" transform="translate(13.957 121.789)"><g id="Group_153" data-name="Group 153"><path id="Path_2037" data-name="Path 2037" class="cls-1" d="M132.379 351.172a1.641 1.641 0 0 0-1.265-.575 2.024 2.024 0 0 0-1.94 1.64 1.665 1.665 0 0 0 .349 1.366 1.641 1.641 0 0 0 1.265.575 2.024 2.024 0 0 0 1.94-1.64 1.665 1.665 0 0 0-.349-1.366z" transform="translate(-129.146 -350.597)"/></g></g><g id="Group_156" data-name="Group 156" transform="translate(42.492 121.789)"><g id="Group_155" data-name="Group 155"><path id="Path_2038" data-name="Path 2038" class="cls-1" d="M396.432 351.172a1.641 1.641 0 0 0-1.265-.575 2.024 2.024 0 0 0-1.94 1.64 1.665 1.665 0 0 0 .349 1.366 1.641 1.641 0 0 0 1.265.575 2.024 2.024 0 0 0 1.94-1.64 1.665 1.665 0 0 0-.349-1.366z" transform="translate(-393.199 -350.597)"/></g></g><g id="Group_158" data-name="Group 158" transform="translate(23.102 118.093)"><g id="Group_157" data-name="Group 157"><path id="Path_2039" data-name="Path 2039" class="cls-1" d="M225.618 316.393H214.64a.866.866 0 0 0 0 1.733h10.978a.866.866 0 0 0 0-1.733z" transform="translate(-213.774 -316.393)"/></g></g><g id="Group_160" data-name="Group 160" transform="translate(2.5 114.396)"><g id="Group_159" data-name="Group 159"><path id="Path_2040" data-name="Path 2040" class="cls-1" d="M39.981 282.189H24a.866.866 0 1 0 0 1.733h15.981a.866.866 0 1 0 0-1.733z" transform="translate(-23.133 -282.189)"/></g></g><g id="Group_162" data-name="Group 162" transform="translate(10.165 107.927)"><g id="Group_161" data-name="Group 161"><path id="Path_2041" data-name="Path 2041" class="cls-1" d="M119.788 225.315l-3.207-2.772a.866.866 0 0 0-1.133 1.311l1.447 1.251H94.926a.866.866 0 1 0 0 1.733h21.418l-1.787 1.184a.866.866 0 1 0 .957 1.444l4.185-2.772a.867.867 0 0 0 .088-1.378z" transform="translate(-94.06 -222.332)"/></g></g></g></svg>