<svg xmlns="http://www.w3.org/2000/svg" viewBox="0 0 76 11.4"><defs><style>.cls-1{fill:#eb9772}</style></defs><g id="Four_Star_Block" data-name="Four Star Block" transform="translate(-22 -751)"><path id="Path_157" data-name="Path 157" class="cls-1" d="M6 0l1.875 3.75 4.125.6-3 2.925.675 4.125L6 9.45 2.325 11.4 3 7.275 0 4.35l4.125-.6z" transform="translate(22 751)"/><path id="Path_158" data-name="Path 158" class="cls-1" d="M6 0l1.875 3.75 4.125.6-3 2.925.675 4.125L6 9.45 2.325 11.4 3 7.275 0 4.35l4.125-.6z" transform="translate(38 751)"/><path id="Path_159" data-name="Path 159" class="cls-1" d="M6 0l1.875 3.75 4.125.6-3 2.925.675 4.125L6 9.45 2.325 11.4 3 7.275 0 4.35l4.125-.6z" transform="translate(54 751)"/><path id="Path_160" data-name="Path 160" class="cls-1" d="M6 0l1.875 3.75 4.125.6-3 2.925.675 4.125L6 9.45 2.325 11.4 3 7.275 0 4.35l4.125-.6z" transform="translate(70 751)"/><path id="Path_161" data-name="Path 161" d="M6 0l1.875 3.75 4.125.6-3 2.925.675 4.125L6 9.45 2.325 11.4 3 7.275 0 4.35l4.125-.6z" transform="translate(86 751)" opacity=".35" fill="#eb9772"/></g></svg>