<svg xmlns="http://www.w3.org/2000/svg" xmlns:xlink="http://www.w3.org/1999/xlink" width="40" height="40"><defs><linearGradient id="a" x1=".5" y1=".008" x2=".5" y2=".998" gradientUnits="objectBoundingBox"><stop offset="0" stop-color="#e09b3d"/><stop offset=".3" stop-color="#c74c4d"/><stop offset=".6" stop-color="#c21975"/><stop offset="1" stop-color="#7024c4"/></linearGradient><linearGradient id="b" y1="-.451" y2="1.462" xlink:href="#a"/><linearGradient id="c" y1="-1.396" y2="6.586" xlink:href="#a"/></defs><path data-name="Path 2044" d="M28.084 0H11.916A11.93 11.93 0 0 0 0 11.916v16.168A11.93 11.93 0 0 0 11.916 40h16.168A11.93 11.93 0 0 0 40 28.084V11.916A11.93 11.93 0 0 0 28.084 0zm7.892 28.084a7.892 7.892 0 0 1-7.892 7.892H11.916a7.892 7.892 0 0 1-7.892-7.892V11.916a7.892 7.892 0 0 1 7.892-7.892h16.168a7.892 7.892 0 0 1 7.892 7.892v16.168z" fill="url(#a)"/><path data-name="Path 2045" d="M143.345 133a10.345 10.345 0 1 0 10.345 10.345A10.357 10.357 0 0 0 143.345 133zm0 16.667a6.321 6.321 0 1 1 6.321-6.321 6.321 6.321 0 0 1-6.321 6.321z" transform="translate(-123.345 -123.345)" fill="url(#b)"/><circle data-name="Ellipse 25" cx="2.479" cy="2.479" r="2.479" transform="translate(27.886 7.253)" fill="url(#c)"/></svg>