<svg xmlns="http://www.w3.org/2000/svg" viewBox="0 0 46.852 60"><defs><style>.cls-1{fill:#eb9772}</style></defs><g id="like_1_" data-name="like (1)" transform="translate(-56.098 -.002)"><g id="Group_122" data-name="Group 122" transform="translate(56.098 .002)"><g id="Group_121" data-name="Group 121"><path id="Path_2023" data-name="Path 2023" class="cls-1" d="M102.434 22.321a4.008 4.008 0 0 0-.779-4.92 2.277 2.277 0 0 1-.684-2.105 4.008 4.008 0 0 0-2.261-4.438 2.277 2.277 0 0 1-1.3-1.791 4.008 4.008 0 0 0-3.522-3.522 2.278 2.278 0 0 1-1.791-1.3 4.009 4.009 0 0 0-4.438-2.261 2.277 2.277 0 0 1-2.108-.684 4.009 4.009 0 0 0-4.92-.779 2.277 2.277 0 0 1-2.213 0A4.009 4.009 0 0 0 73.5 1.3a2.277 2.277 0 0 1-2.105.684 4.009 4.009 0 0 0-4.438 2.261 2.277 2.277 0 0 1-1.791 1.3 4.008 4.008 0 0 0-3.522 3.522 2.277 2.277 0 0 1-1.3 1.791 4.008 4.008 0 0 0-2.266 4.442 2.277 2.277 0 0 1-.684 2.105 4.008 4.008 0 0 0-.779 4.92 2.277 2.277 0 0 1 0 2.213 4.008 4.008 0 0 0 .779 4.92 2.277 2.277 0 0 1 .684 2.105A4.008 4.008 0 0 0 60.34 36a2.278 2.278 0 0 1 1.3 1.791 4.007 4.007 0 0 0 2.624 3.31l-6.2 12.694a.879.879 0 0 0 .834 1.263l5.946-.3 3.421 4.872a.879.879 0 0 0 .719.374h.069a.879.879 0 0 0 .72-.491l6.191-12.683a4.014 4.014 0 0 0 2.449-.488 2.277 2.277 0 0 1 2.213 0 3.981 3.981 0 0 0 2.5.481l6.194 12.69a.879.879 0 0 0 .72.491h.069a.879.879 0 0 0 .719-.374l3.421-4.872 5.946.3a.879.879 0 0 0 .834-1.263l-6.2-12.709a4.006 4.006 0 0 0 2.581-3.295A2.278 2.278 0 0 1 98.709 36a4.008 4.008 0 0 0 2.261-4.438 2.277 2.277 0 0 1 .684-2.105 4.008 4.008 0 0 0 .779-4.92 2.277 2.277 0 0 1 .001-2.216zM68.852 57.4l-2.844-4.051a.876.876 0 0 0-.764-.373l-4.943.25 5.685-11.648a2.273 2.273 0 0 1 .967 1.035 4.012 4.012 0 0 0 1.989 1.982l-1.879 3.85a.879.879 0 1 0 1.58.771l2.082-4.266a4.08 4.08 0 0 0 .667-.076 2.276 2.276 0 0 1 2.105.684 4.044 4.044 0 0 0 .806.673zM98.8 53.225l-4.943-.25a.875.875 0 0 0-.764.373L90.247 57.4l-5.464-11.195a4.05 4.05 0 0 0 .768-.647 2.277 2.277 0 0 1 2.105-.684 4.07 4.07 0 0 0 .718.077l2.081 4.264a.879.879 0 0 0 1.58-.771l-1.889-3.869a4.013 4.013 0 0 0 1.948-1.963 2.273 2.273 0 0 1 1.006-1.056zm1.665-25.062a4.046 4.046 0 0 0-1.215 3.74 2.256 2.256 0 0 1-1.273 2.5 4.046 4.046 0 0 0-2.311 3.181 2.256 2.256 0 0 1-1.983 1.983 4.046 4.046 0 0 0-3.183 2.31A2.256 2.256 0 0 1 88 43.15a4.047 4.047 0 0 0-3.74 1.215 2.256 2.256 0 0 1-2.77.439 4.045 4.045 0 0 0-3.932 0 2.256 2.256 0 0 1-2.77-.439 4.047 4.047 0 0 0-3.74-1.215 2.256 2.256 0 0 1-2.5-1.273 4.046 4.046 0 0 0-3.181-2.311 2.256 2.256 0 0 1-1.983-1.983 4.047 4.047 0 0 0-2.309-3.183 2.256 2.256 0 0 1-1.275-2.5 4.046 4.046 0 0 0-1.215-3.74 2.256 2.256 0 0 1-.439-2.769 4.046 4.046 0 0 0 0-3.932 2.256 2.256 0 0 1 .439-2.769 4.046 4.046 0 0 0 1.215-3.74 2.256 2.256 0 0 1 1.273-2.5 4.046 4.046 0 0 0 2.311-3.181 2.256 2.256 0 0 1 1.983-1.983 4.046 4.046 0 0 0 3.181-2.311 2.256 2.256 0 0 1 2.5-1.273 4.045 4.045 0 0 0 3.74-1.215 2.256 2.256 0 0 1 2.769-.439 4.046 4.046 0 0 0 3.932 0 2.256 2.256 0 0 1 2.769.439A4.046 4.046 0 0 0 88 3.7a2.256 2.256 0 0 1 2.5 1.273 4.046 4.046 0 0 0 3.18 2.316 2.256 2.256 0 0 1 1.983 1.983 4.046 4.046 0 0 0 2.311 3.181 2.256 2.256 0 0 1 1.273 2.5 4.046 4.046 0 0 0 1.215 3.74 2.256 2.256 0 0 1 .439 2.769 4.046 4.046 0 0 0 0 3.933 2.257 2.257 0 0 1-.439 2.768z" transform="translate(-56.098 -.002)"/></g></g><g id="Group_124" data-name="Group 124" transform="translate(67.374 9.772)"><g id="Group_123" data-name="Group 123"><path id="Path_2024" data-name="Path 2024" class="cls-1" d="M178.493 93.274a2.761 2.761 0 0 0-2.758-2.758h-5.985a25.22 25.22 0 0 0 1.7-3.964 2.418 2.418 0 0 0-1.542-3.035l-.054-.018a2.437 2.437 0 0 0-2.96 1.271c-.776 1.624-2.5 4.5-5.424 5.747h-.57a2.751 2.751 0 0 0-2.071-.939h-3.759a2.761 2.761 0 0 0-2.758 2.758v13.151a2.761 2.761 0 0 0 2.758 2.758h3.757a2.751 2.751 0 0 0 2.071-.939h12.02a2.757 2.757 0 0 0 2.373-4.16 2.755 2.755 0 0 0 .939-3.757 2.755 2.755 0 0 0 .939-3.757 2.758 2.758 0 0 0 1.324-2.358zm-2.758 1h-2.818a.879.879 0 1 0 0 1.758h1.883a1 1 0 1 1 0 2h-2.818a.879.879 0 0 0 0 1.758h1.879a1 1 0 1 1 0 2h-2.818a.879.879 0 0 0 0 1.758h1.879a1 1 0 1 1 0 2h-11.337v-8.517a.879.879 0 0 0-1.758 0v8.454a1 1 0 0 1-1 1h-3.757a1 1 0 0 1-1-1V92.334a1 1 0 0 1 1-1h3.757a1 1 0 0 1 1 1v.939a.879.879 0 0 0 1.758 0v-1h.06a.878.878 0 0 0 .326-.063c3.567-1.427 5.61-4.8 6.509-6.684a.677.677 0 0 1 .818-.361l.054.018a.657.657 0 0 1 .429.819 22.637 22.637 0 0 1-2.292 4.9.879.879 0 0 0 .731 1.366h7.515a1 1 0 1 1 0 2z" transform="translate(-152.313 -83.375)"/></g></g><g id="Group_126" data-name="Group 126" transform="translate(71.145 29.124)"><g id="Group_125" data-name="Group 125"><circle id="Ellipse_23" data-name="Ellipse 23" class="cls-1" cx=".879" cy=".879" r=".879"/></g></g></g></svg>