<svg xmlns="http://www.w3.org/2000/svg" viewBox="0 0 45.277 40"><g data-name="Group 76"><path data-name="Path 2009" d="M41.973 3.929a11.4 11.4 0 0 0-18.208 1.31 17.36 17.36 0 0 0-1.127 1.825 17.345 17.345 0 0 0-1.127-1.827A11.4 11.4 0 0 0 3.3 3.929 13.724 13.724 0 0 0 0 13.045c0 3.767 1.471 7.272 4.629 11.027 2.822 3.357 6.883 6.817 11.585 10.824 1.752 1.493 3.564 3.037 5.493 4.725l.058.051a1.327 1.327 0 0 0 1.747 0l.058-.051c1.929-1.688 3.741-3.232 5.493-4.725 4.7-4.006 8.762-7.467 11.585-10.824 3.158-3.756 4.629-7.26 4.629-11.027a13.724 13.724 0 0 0-3.304-9.116zM27.342 32.877c-1.51 1.287-3.065 2.612-4.7 4.037a657.567 657.567 0 0 0-4.708-4.037C8.732 25.035 2.653 19.855 2.653 13.045a11.076 11.076 0 0 1 2.641-7.361 8.855 8.855 0 0 1 6.733-3.031 8.943 8.943 0 0 1 7.32 4.12 15.726 15.726 0 0 1 2.031 4.038 1.326 1.326 0 0 0 2.522 0 15.728 15.728 0 0 1 2.031-4.038 8.755 8.755 0 0 1 14.053-1.09 11.076 11.076 0 0 1 2.641 7.361c-.001 6.811-6.08 11.991-15.283 19.833z" fill="#cbcbcb"/></g></svg>