<svg xmlns="http://www.w3.org/2000/svg" viewBox="0 0 109 72.525"><g data-name="Group 94"><path data-name="feather (1)" d="M54.8 27.441c6.023.084 11.057-6.548 10.995-7.728-.035-.66-2.352.272-5.73-.348a7.328 7.328 0 0 0-2.796 2.27 8.493 8.493 0 0 1 1.593-2.516 23.141 23.141 0 0 1-2.347-.716 7.657 7.657 0 0 0-7.596 1.412c.969-1.125 1.042-2.542 2.9-3.444a52.9 52.9 0 0 0-7.111-3.074 6.558 6.558 0 0 0-5.499.82 13.658 13.658 0 0 0-2.646 2.36 8.461 8.461 0 0 1 2.441-3.85c-4.046.313-7.024 3.712-8.195 6.507a3.93 3.93 0 0 0-1.985-2.279 3.271 3.271 0 0 1 .712 2.367c-1.95-.855-3.831 1.098-3.831 1.098 2.437-1.003 4.559 1.252 4.559 1.252 0 .035.01.06.013.094a10.779 10.779 0 0 1 13.084-3.425c2.927 1.32 9.406 4.362 12.603 4.834-2.85.821-11.224-2.501-13.24-3.31a10.428 10.428 0 0 0-11.933 3.004c1.22 1.067 4.469.49 8.832 1.676a5.269 5.269 0 0 0-2.838-3.703 8.919 8.919 0 0 1 5.18 3.064 7 7 0 0 0 3.41 2.277 29.9 29.9 0 0 0 8.175 1.407 2.707 2.707 0 0 0-1.76-2.739 3.651 3.651 0 0 1 3.01 2.69z" fill="#ebebeb"/><text transform="translate(0 49.525)" font-family="Helvetica" fill="#eb9772" font-size="40"><tspan x="0" y="0">Soft</tspan></text><text transform="translate(51 67.525)" fill="#676477" font-size="22" font-family="Helvetica"><tspan x="0" y="0">textile</tspan></text></g></svg>