<svg xmlns="http://www.w3.org/2000/svg" viewBox="0 0 28.556 40"><defs><style>.cls-1{fill:#eb9772}</style></defs><g id="online-payment" transform="translate(-73.242)"><g id="Group_132" data-name="Group 132" transform="translate(90.659 3.976)"><g id="Group_131" data-name="Group 131"><path id="Path_2027" data-name="Path 2027" class="cls-1" d="M296.769 50.9a.588.588 0 0 0 0 1.176 1.848 1.848 0 0 1 1.846 1.846.588.588 0 1 0 1.176 0 3.026 3.026 0 0 0-3.022-3.022z" transform="translate(-296.181 -50.896)"/></g></g><g id="Group_134" data-name="Group 134" transform="translate(90.659)"><g id="Group_133" data-name="Group 133"><path id="Path_2028" data-name="Path 2028" class="cls-1" d="M296.769 0a.588.588 0 0 0 0 1.176A5.829 5.829 0 0 1 302.592 7a.588.588 0 1 0 1.176 0 7.006 7.006 0 0 0-6.999-7z" transform="translate(-296.181)"/></g></g><g id="Group_136" data-name="Group 136" transform="translate(90.659 1.913)"><g id="Group_135" data-name="Group 135"><path id="Path_2029" data-name="Path 2029" class="cls-1" d="M296.769 24.49a.588.588 0 0 0 0 1.176 3.914 3.914 0 0 1 3.909 3.909.588.588 0 0 0 1.176 0 5.091 5.091 0 0 0-5.085-5.085z" transform="translate(-296.181 -24.49)"/></g></g><g id="Group_138" data-name="Group 138" transform="translate(79.13 8.115)"><g id="Group_137" data-name="Group 137"><path id="Path_2030" data-name="Path 2030" class="cls-1" d="M152.005 103.876h-2.763a.627.627 0 0 0 0 1.254h2.763a.627.627 0 0 0 0-1.254z" transform="translate(-148.615 -103.876)"/></g></g><g id="Group_140" data-name="Group 140" transform="translate(84.304 8.186)"><g id="Group_139" data-name="Group 139"><circle id="Ellipse_24" data-name="Ellipse 24" class="cls-1" cx=".557" cy=".557" r=".557"/></g></g><g id="Group_142" data-name="Group 142" transform="translate(79.961 36.233)"><g id="Group_141" data-name="Group 141"><path id="Path_2031" data-name="Path 2031" class="cls-1" d="M163.908 463.787h-4.078a.588.588 0 0 0 0 1.176h4.078a.588.588 0 1 0 0-1.176z" transform="translate(-159.242 -463.787)"/></g></g><g id="Group_144" data-name="Group 144" transform="translate(79.353 14.627)"><g id="Group_143" data-name="Group 143"><path id="Path_2032" data-name="Path 2032" class="cls-1" d="M152.991 192.327c0-1.156.931-1.561 2.042-1.561 1.306 0 1.741.57 2.087.57s.54-.45.54-.691c0-.617-1.3-.933-2.339-.983v-1.852a.588.588 0 0 0-1.176 0v1.919a2.605 2.605 0 0 0-2.414 2.718c0 3.648 4.939 2.282 4.939 5.3 0 1.246-.826 1.861-2.087 1.861-1.771 0-2.117-1.216-2.567-1.216-.285 0-.555.39-.555.691 0 .588 1.035 1.513 2.685 1.672v1.871a.588.588 0 0 0 1.176 0v-1.893a2.851 2.851 0 0 0 2.609-3.106c-.001-4.084-4.94-2.763-4.94-5.3z" transform="translate(-151.46 -187.223)"/></g></g><g id="Group_146" data-name="Group 146" transform="translate(98.769 32.767)"><g id="Group_145" data-name="Group 145"><path id="Path_2033" data-name="Path 2033" class="cls-1" d="M399.99 419.424z" transform="translate(-399.99 -419.423)"/></g></g><g id="Group_148" data-name="Group 148" transform="translate(73.242 5.727)"><g id="Group_147" data-name="Group 147"><path id="Path_2034" data-name="Path 2034" class="cls-1" d="M101.676 102.868l-.745-1.706a1.6 1.6 0 0 0-.627-.724 1.948 1.948 0 0 0-.019-1.515L98.2 94.139a1.958 1.958 0 0 0-2.571-1.01l-3.529 1.54-.164-.375V76.5a3.194 3.194 0 0 0-3.19-3.19H76.432a3.194 3.194 0 0 0-3.19 3.19v27.862a3.194 3.194 0 0 0 3.19 3.19h10.411a.588.588 0 0 0 0-1.176H76.432a2.017 2.017 0 0 1-2.015-2.015v-1.912h16.34v1.912a2.012 2.012 0 0 1-1.667 1.984.588.588 0 0 0 .2 1.159 3.186 3.186 0 0 0 2.639-3.143v-.515c.043.024.088.047.133.068a1.6 1.6 0 0 0 .077 1.086l.744 1.706a1.462 1.462 0 0 0 1.921.754l6.117-2.667a1.46 1.46 0 0 0 .755-1.921zm-27.258-1.6V79.583h2.292a.588.588 0 0 0 0-1.176h-2.292V76.5a2.017 2.017 0 0 1 2.015-2.015h12.31a2.017 2.017 0 0 1 2.015 2.015v1.912h-11.7a.588.588 0 0 0 0 1.176h11.7V91.6l-1-2.291a2.13 2.13 0 0 0-2.622-1.177 2.108 2.108 0 0 0-1.248 2.831l2.612 5.985-.459-.124a2.083 2.083 0 0 0-2.4 3 2.151 2.151 0 0 0 1.288 1.032l1.456.415H74.418zm18.758 1.515h-.006a.7.7 0 0 1-.914-.364l-.322-.738-.161-.37a1.012 1.012 0 0 0-.655-.572l-.36-.1-3.481-.992a.893.893 0 0 1-.532-.428.827.827 0 0 1 .957-1.189c.026.007.011 0 0 0l.942.255a1.026 1.026 0 0 0 1.147-1.513c-.019-.039-.108-.245-2.755-6.316a.84.84 0 0 1 0-.682.851.851 0 0 1 1.567.03l2.149 4.928.441 1.01a.627.627 0 0 0 .825.325l4.105-1.79a.7.7 0 0 1 .92.362l2.086 4.783a.7.7 0 0 1-.361.92h-.005zm6.018-1.256h-.007zm1.225 2.111l-6.119 2.669a.206.206 0 0 1-.27-.107l-.744-1.706a.36.36 0 0 1 .185-.47l5.682-2.478-.177.077.332-.145a.347.347 0 0 1 .139-.029.365.365 0 0 1 .332.214l.744 1.706a.205.205 0 0 1-.104.272z" transform="translate(-73.242 -73.305)"/></g></g></g></svg>