<svg version="1.1" xmlns="http://www.w3.org/2000/svg" xmlns:xlink="http://www.w3.org/1999/xlink" viewBox="0 0 30 90" style="display:none">
    <defs>
        <symbol id="phone">
            <g>
                <g id="call">
                    <path id="Path_2005" data-name="Path 2005" class="cls-1"
                          d="M30.213 24.162l-6.072-4.05a1.772 1.772 0 0 0-2.373.385L20 22.772a.756.756 0 0 1-.969.2l-.336-.185a20.333 20.333 0 0 1-5.3-4.162 20.417 20.417 0 0 1-4.162-5.3l-.184-.336a.757.757 0 0 1 .2-.973l2.273-1.768a1.773 1.773 0 0 0 .386-2.373l-4.052-6.07A1.763 1.763 0 0 0 5.48 1.27L2.941 2.8a3.582 3.582 0 0 0-1.633 2.12C.393 8.247 1.081 14 9.551 22.469c6.738 6.737 11.753 8.549 15.2 8.549a8.856 8.856 0 0 0 2.35-.307 3.578 3.578 0 0 0 2.12-1.633l1.527-2.538a1.764 1.764 0 0 0-.535-2.378zm-.327 1.865l-1.523 2.539a2.584 2.584 0 0 1-1.525 1.182c-3.076.844-8.449.145-16.58-7.987S1.427 8.256 2.272 5.18a2.588 2.588 0 0 1 1.183-1.527L5.994 2.13a.765.765 0 0 1 1.031.232l2.2 3.3 1.846 2.769a.77.77 0 0 1-.167 1.03l-2.273 1.771a1.75 1.75 0 0 0-.463 2.246l.181.328a21.21 21.21 0 0 0 4.333 5.53 21.231 21.231 0 0 0 5.529 4.333l.328.181a1.75 1.75 0 0 0 2.246-.463l1.768-2.273a.77.77 0 0 1 1.03-.167L29.654 25a.764.764 0 0 1 .232 1.027z"
                          transform="translate(-1 -1.018)"/>
                    <path id="Path_2006" data-name="Path 2006" class="cls-1"
                          d="M283.14 70.348a8.711 8.711 0 0 1 8.7 8.7.512.512 0 0 0 1.024 0 9.735 9.735 0 0 0-9.725-9.725.512.512 0 1 0 0 1.024z"
                          transform="translate(-266.45 -65.227)"/>
                    <path id="Path_2007" data-name="Path 2007" class="cls-1"
                          d="M283.14 121.548a5.637 5.637 0 0 1 5.63 5.63.512.512 0 1 0 1.024 0 6.661 6.661 0 0 0-6.654-6.654.512.512 0 1 0 0 1.024z"
                          transform="translate(-266.248 -113.573)"/>
                    <path id="Path_2008" data-name="Path 2008" class="cls-1"
                          d="M283.14 172.748a2.562 2.562 0 0 1 2.559 2.559.512.512 0 1 0 1.024 0 3.587 3.587 0 0 0-3.583-3.583.512.512 0 1 0 0 1.024z"
                          transform="translate(-266.189 -161.759)"/>
                </g>
                <g id="call-2">
                    <path id="Path_2005-2" data-name="Path 2005" class="cls-1"
                          d="M30.213 24.162l-6.072-4.05a1.772 1.772 0 0 0-2.373.385L20 22.772a.756.756 0 0 1-.969.2l-.336-.185a20.333 20.333 0 0 1-5.3-4.162 20.417 20.417 0 0 1-4.162-5.3l-.184-.336a.757.757 0 0 1 .2-.973l2.273-1.768a1.773 1.773 0 0 0 .386-2.373l-4.052-6.07A1.763 1.763 0 0 0 5.48 1.27L2.941 2.8a3.582 3.582 0 0 0-1.633 2.12C.393 8.247 1.081 14 9.551 22.469c6.738 6.737 11.753 8.549 15.2 8.549a8.856 8.856 0 0 0 2.35-.307 3.578 3.578 0 0 0 2.12-1.633l1.527-2.538a1.764 1.764 0 0 0-.535-2.378zm-.327 1.865l-1.523 2.539a2.584 2.584 0 0 1-1.525 1.182c-3.076.844-8.449.145-16.58-7.987S1.427 8.256 2.272 5.18a2.588 2.588 0 0 1 1.183-1.527L5.994 2.13a.765.765 0 0 1 1.031.232l2.2 3.3 1.846 2.769a.77.77 0 0 1-.167 1.03l-2.273 1.771a1.75 1.75 0 0 0-.463 2.246l.181.328a21.21 21.21 0 0 0 4.333 5.53 21.231 21.231 0 0 0 5.529 4.333l.328.181a1.75 1.75 0 0 0 2.246-.463l1.768-2.273a.77.77 0 0 1 1.03-.167L29.654 25a.764.764 0 0 1 .232 1.027z"
                          transform="translate(-1 -1.018)"/>
                    <path id="Path_2006-2" data-name="Path 2006" class="cls-1"
                          d="M283.14 70.348a8.711 8.711 0 0 1 8.7 8.7.512.512 0 0 0 1.024 0 9.735 9.735 0 0 0-9.725-9.725.512.512 0 1 0 0 1.024z"
                          transform="translate(-266.45 -65.227)"/>
                    <path id="Path_2007-2" data-name="Path 2007" class="cls-1"
                          d="M283.14 121.548a5.637 5.637 0 0 1 5.63 5.63.512.512 0 1 0 1.024 0 6.661 6.661 0 0 0-6.654-6.654.512.512 0 1 0 0 1.024z"
                          transform="translate(-266.248 -113.573)"/>
                    <path id="Path_2008-2" data-name="Path 2008" class="cls-1"
                          d="M283.14 172.748a2.562 2.562 0 0 1 2.559 2.559.512.512 0 1 0 1.024 0 3.587 3.587 0 0 0-3.583-3.583.512.512 0 1 0 0 1.024z"
                          transform="translate(-266.189 -161.759)"/>
                </g>
                <g id="call-3" data-name="call">
                    <path id="Path_2005-3" data-name="Path 2005" class="cls-1"
                          d="M30.213 24.162l-6.072-4.05a1.772 1.772 0 0 0-2.373.385L20 22.772a.756.756 0 0 1-.969.2l-.336-.185a20.333 20.333 0 0 1-5.3-4.162 20.417 20.417 0 0 1-4.162-5.3l-.184-.336a.757.757 0 0 1 .2-.973l2.273-1.768a1.773 1.773 0 0 0 .386-2.373l-4.052-6.07A1.763 1.763 0 0 0 5.48 1.27L2.941 2.8a3.582 3.582 0 0 0-1.633 2.12C.393 8.247 1.081 14 9.551 22.469c6.738 6.737 11.753 8.549 15.2 8.549a8.856 8.856 0 0 0 2.35-.307 3.578 3.578 0 0 0 2.12-1.633l1.527-2.538a1.764 1.764 0 0 0-.535-2.378zm-.327 1.865l-1.523 2.539a2.584 2.584 0 0 1-1.525 1.182c-3.076.844-8.449.145-16.58-7.987S1.427 8.256 2.272 5.18a2.588 2.588 0 0 1 1.183-1.527L5.994 2.13a.765.765 0 0 1 1.031.232l2.2 3.3 1.846 2.769a.77.77 0 0 1-.167 1.03l-2.273 1.771a1.75 1.75 0 0 0-.463 2.246l.181.328a21.21 21.21 0 0 0 4.333 5.53 21.231 21.231 0 0 0 5.529 4.333l.328.181a1.75 1.75 0 0 0 2.246-.463l1.768-2.273a.77.77 0 0 1 1.03-.167L29.654 25a.764.764 0 0 1 .232 1.027z"
                          transform="translate(-1 -1.018)"/>
                    <path id="Path_2006-3" data-name="Path 2006" class="cls-1"
                          d="M283.14 70.348a8.711 8.711 0 0 1 8.7 8.7.512.512 0 0 0 1.024 0 9.735 9.735 0 0 0-9.725-9.725.512.512 0 1 0 0 1.024z"
                          transform="translate(-266.45 -65.227)"/>
                    <path id="Path_2007-3" data-name="Path 2007" class="cls-1"
                          d="M283.14 121.548a5.637 5.637 0 0 1 5.63 5.63.512.512 0 1 0 1.024 0 6.661 6.661 0 0 0-6.654-6.654.512.512 0 1 0 0 1.024z"
                          transform="translate(-266.248 -113.573)"/>
                    <path id="Path_2008-3" data-name="Path 2008" class="cls-1"
                          d="M283.14 172.748a2.562 2.562 0 0 1 2.559 2.559.512.512 0 1 0 1.024 0 3.587 3.587 0 0 0-3.583-3.583.512.512 0 1 0 0 1.024z"
                          transform="translate(-266.189 -161.759)"/>
                </g>
                <g id="call-4" data-name="call">
                    <path id="Path_2005-4" data-name="Path 2005" class="cls-1"
                          d="M30.213 24.162l-6.072-4.05a1.772 1.772 0 0 0-2.373.385L20 22.772a.756.756 0 0 1-.969.2l-.336-.185a20.333 20.333 0 0 1-5.3-4.162 20.417 20.417 0 0 1-4.162-5.3l-.184-.336a.757.757 0 0 1 .2-.973l2.273-1.768a1.773 1.773 0 0 0 .386-2.373l-4.052-6.07A1.763 1.763 0 0 0 5.48 1.27L2.941 2.8a3.582 3.582 0 0 0-1.633 2.12C.393 8.247 1.081 14 9.551 22.469c6.738 6.737 11.753 8.549 15.2 8.549a8.856 8.856 0 0 0 2.35-.307 3.578 3.578 0 0 0 2.12-1.633l1.527-2.538a1.764 1.764 0 0 0-.535-2.378zm-.327 1.865l-1.523 2.539a2.584 2.584 0 0 1-1.525 1.182c-3.076.844-8.449.145-16.58-7.987S1.427 8.256 2.272 5.18a2.588 2.588 0 0 1 1.183-1.527L5.994 2.13a.765.765 0 0 1 1.031.232l2.2 3.3 1.846 2.769a.77.77 0 0 1-.167 1.03l-2.273 1.771a1.75 1.75 0 0 0-.463 2.246l.181.328a21.21 21.21 0 0 0 4.333 5.53 21.231 21.231 0 0 0 5.529 4.333l.328.181a1.75 1.75 0 0 0 2.246-.463l1.768-2.273a.77.77 0 0 1 1.03-.167L29.654 25a.764.764 0 0 1 .232 1.027z"
                          transform="translate(-1 -1.018)"/>
                    <path id="Path_2006-4" data-name="Path 2006" class="cls-1"
                          d="M283.14 70.348a8.711 8.711 0 0 1 8.7 8.7.512.512 0 0 0 1.024 0 9.735 9.735 0 0 0-9.725-9.725.512.512 0 1 0 0 1.024z"
                          transform="translate(-266.45 -65.227)"/>
                    <path id="Path_2007-4" data-name="Path 2007" class="cls-1"
                          d="M283.14 121.548a5.637 5.637 0 0 1 5.63 5.63.512.512 0 1 0 1.024 0 6.661 6.661 0 0 0-6.654-6.654.512.512 0 1 0 0 1.024z"
                          transform="translate(-266.248 -113.573)"/>
                    <path id="Path_2008-4" data-name="Path 2008" class="cls-1"
                          d="M283.14 172.748a2.562 2.562 0 0 1 2.559 2.559.512.512 0 1 0 1.024 0 3.587 3.587 0 0 0-3.583-3.583.512.512 0 1 0 0 1.024z"
                          transform="translate(-266.189 -161.759)"/>
                </g>
                <g id="call-5" data-name="call">
                    <path id="Path_2005-5" data-name="Path 2005" class="cls-1"
                          d="M30.213 24.162l-6.072-4.05a1.772 1.772 0 0 0-2.373.385L20 22.772a.756.756 0 0 1-.969.2l-.336-.185a20.333 20.333 0 0 1-5.3-4.162 20.417 20.417 0 0 1-4.162-5.3l-.184-.336a.757.757 0 0 1 .2-.973l2.273-1.768a1.773 1.773 0 0 0 .386-2.373l-4.052-6.07A1.763 1.763 0 0 0 5.48 1.27L2.941 2.8a3.582 3.582 0 0 0-1.633 2.12C.393 8.247 1.081 14 9.551 22.469c6.738 6.737 11.753 8.549 15.2 8.549a8.856 8.856 0 0 0 2.35-.307 3.578 3.578 0 0 0 2.12-1.633l1.527-2.538a1.764 1.764 0 0 0-.535-2.378zm-.327 1.865l-1.523 2.539a2.584 2.584 0 0 1-1.525 1.182c-3.076.844-8.449.145-16.58-7.987S1.427 8.256 2.272 5.18a2.588 2.588 0 0 1 1.183-1.527L5.994 2.13a.765.765 0 0 1 1.031.232l2.2 3.3 1.846 2.769a.77.77 0 0 1-.167 1.03l-2.273 1.771a1.75 1.75 0 0 0-.463 2.246l.181.328a21.21 21.21 0 0 0 4.333 5.53 21.231 21.231 0 0 0 5.529 4.333l.328.181a1.75 1.75 0 0 0 2.246-.463l1.768-2.273a.77.77 0 0 1 1.03-.167L29.654 25a.764.764 0 0 1 .232 1.027z"
                          transform="translate(-1 -1.018)"/>
                    <path id="Path_2006-5" data-name="Path 2006" class="cls-1"
                          d="M283.14 70.348a8.711 8.711 0 0 1 8.7 8.7.512.512 0 0 0 1.024 0 9.735 9.735 0 0 0-9.725-9.725.512.512 0 1 0 0 1.024z"
                          transform="translate(-266.45 -65.227)"/>
                    <path id="Path_2007-5" data-name="Path 2007" class="cls-1"
                          d="M283.14 121.548a5.637 5.637 0 0 1 5.63 5.63.512.512 0 1 0 1.024 0 6.661 6.661 0 0 0-6.654-6.654.512.512 0 1 0 0 1.024z"
                          transform="translate(-266.248 -113.573)"/>
                    <path id="Path_2008-5" data-name="Path 2008" class="cls-1"
                          d="M283.14 172.748a2.562 2.562 0 0 1 2.559 2.559.512.512 0 1 0 1.024 0 3.587 3.587 0 0 0-3.583-3.583.512.512 0 1 0 0 1.024z"
                          transform="translate(-266.189 -161.759)"/>
                </g>
                <g id="call-6" data-name="call">
                    <path id="Path_2005-6" data-name="Path 2005" class="cls-1"
                          d="M30.213 24.162l-6.072-4.05a1.772 1.772 0 0 0-2.373.385L20 22.772a.756.756 0 0 1-.969.2l-.336-.185a20.333 20.333 0 0 1-5.3-4.162 20.417 20.417 0 0 1-4.162-5.3l-.184-.336a.757.757 0 0 1 .2-.973l2.273-1.768a1.773 1.773 0 0 0 .386-2.373l-4.052-6.07A1.763 1.763 0 0 0 5.48 1.27L2.941 2.8a3.582 3.582 0 0 0-1.633 2.12C.393 8.247 1.081 14 9.551 22.469c6.738 6.737 11.753 8.549 15.2 8.549a8.856 8.856 0 0 0 2.35-.307 3.578 3.578 0 0 0 2.12-1.633l1.527-2.538a1.764 1.764 0 0 0-.535-2.378zm-.327 1.865l-1.523 2.539a2.584 2.584 0 0 1-1.525 1.182c-3.076.844-8.449.145-16.58-7.987S1.427 8.256 2.272 5.18a2.588 2.588 0 0 1 1.183-1.527L5.994 2.13a.765.765 0 0 1 1.031.232l2.2 3.3 1.846 2.769a.77.77 0 0 1-.167 1.03l-2.273 1.771a1.75 1.75 0 0 0-.463 2.246l.181.328a21.21 21.21 0 0 0 4.333 5.53 21.231 21.231 0 0 0 5.529 4.333l.328.181a1.75 1.75 0 0 0 2.246-.463l1.768-2.273a.77.77 0 0 1 1.03-.167L29.654 25a.764.764 0 0 1 .232 1.027z"
                          transform="translate(-1 -1.018)"/>
                    <path id="Path_2006-6" data-name="Path 2006" class="cls-1"
                          d="M283.14 70.348a8.711 8.711 0 0 1 8.7 8.7.512.512 0 0 0 1.024 0 9.735 9.735 0 0 0-9.725-9.725.512.512 0 1 0 0 1.024z"
                          transform="translate(-266.45 -65.227)"/>
                    <path id="Path_2007-6" data-name="Path 2007" class="cls-1"
                          d="M283.14 121.548a5.637 5.637 0 0 1 5.63 5.63.512.512 0 1 0 1.024 0 6.661 6.661 0 0 0-6.654-6.654.512.512 0 1 0 0 1.024z"
                          transform="translate(-266.248 -113.573)"/>
                    <path id="Path_2008-6" data-name="Path 2008" class="cls-1"
                          d="M283.14 172.748a2.562 2.562 0 0 1 2.559 2.559.512.512 0 1 0 1.024 0 3.587 3.587 0 0 0-3.583-3.583.512.512 0 1 0 0 1.024z"
                          transform="translate(-266.189 -161.759)"/>
                </g>
                <g id="call-7" data-name="call">
                    <path id="Path_2005-7" data-name="Path 2005" class="cls-1"
                          d="M30.213 24.162l-6.072-4.05a1.772 1.772 0 0 0-2.373.385L20 22.772a.756.756 0 0 1-.969.2l-.336-.185a20.333 20.333 0 0 1-5.3-4.162 20.417 20.417 0 0 1-4.162-5.3l-.184-.336a.757.757 0 0 1 .2-.973l2.273-1.768a1.773 1.773 0 0 0 .386-2.373l-4.052-6.07A1.763 1.763 0 0 0 5.48 1.27L2.941 2.8a3.582 3.582 0 0 0-1.633 2.12C.393 8.247 1.081 14 9.551 22.469c6.738 6.737 11.753 8.549 15.2 8.549a8.856 8.856 0 0 0 2.35-.307 3.578 3.578 0 0 0 2.12-1.633l1.527-2.538a1.764 1.764 0 0 0-.535-2.378zm-.327 1.865l-1.523 2.539a2.584 2.584 0 0 1-1.525 1.182c-3.076.844-8.449.145-16.58-7.987S1.427 8.256 2.272 5.18a2.588 2.588 0 0 1 1.183-1.527L5.994 2.13a.765.765 0 0 1 1.031.232l2.2 3.3 1.846 2.769a.77.77 0 0 1-.167 1.03l-2.273 1.771a1.75 1.75 0 0 0-.463 2.246l.181.328a21.21 21.21 0 0 0 4.333 5.53 21.231 21.231 0 0 0 5.529 4.333l.328.181a1.75 1.75 0 0 0 2.246-.463l1.768-2.273a.77.77 0 0 1 1.03-.167L29.654 25a.764.764 0 0 1 .232 1.027z"
                          transform="translate(-1 -1.018)"/>
                    <path id="Path_2006-7" data-name="Path 2006" class="cls-1"
                          d="M283.14 70.348a8.711 8.711 0 0 1 8.7 8.7.512.512 0 0 0 1.024 0 9.735 9.735 0 0 0-9.725-9.725.512.512 0 1 0 0 1.024z"
                          transform="translate(-266.45 -65.227)"/>
                    <path id="Path_2007-7" data-name="Path 2007" class="cls-1"
                          d="M283.14 121.548a5.637 5.637 0 0 1 5.63 5.63.512.512 0 1 0 1.024 0 6.661 6.661 0 0 0-6.654-6.654.512.512 0 1 0 0 1.024z"
                          transform="translate(-266.248 -113.573)"/>
                    <path id="Path_2008-7" data-name="Path 2008" class="cls-1"
                          d="M283.14 172.748a2.562 2.562 0 0 1 2.559 2.559.512.512 0 1 0 1.024 0 3.587 3.587 0 0 0-3.583-3.583.512.512 0 1 0 0 1.024z"
                          transform="translate(-266.189 -161.759)"/>
                </g>
                <g id="call-8" data-name="call">
                    <path id="Path_2005-8" data-name="Path 2005" class="cls-1"
                          d="M30.213 24.162l-6.072-4.05a1.772 1.772 0 0 0-2.373.385L20 22.772a.756.756 0 0 1-.969.2l-.336-.185a20.333 20.333 0 0 1-5.3-4.162 20.417 20.417 0 0 1-4.162-5.3l-.184-.336a.757.757 0 0 1 .2-.973l2.273-1.768a1.773 1.773 0 0 0 .386-2.373l-4.052-6.07A1.763 1.763 0 0 0 5.48 1.27L2.941 2.8a3.582 3.582 0 0 0-1.633 2.12C.393 8.247 1.081 14 9.551 22.469c6.738 6.737 11.753 8.549 15.2 8.549a8.856 8.856 0 0 0 2.35-.307 3.578 3.578 0 0 0 2.12-1.633l1.527-2.538a1.764 1.764 0 0 0-.535-2.378zm-.327 1.865l-1.523 2.539a2.584 2.584 0 0 1-1.525 1.182c-3.076.844-8.449.145-16.58-7.987S1.427 8.256 2.272 5.18a2.588 2.588 0 0 1 1.183-1.527L5.994 2.13a.765.765 0 0 1 1.031.232l2.2 3.3 1.846 2.769a.77.77 0 0 1-.167 1.03l-2.273 1.771a1.75 1.75 0 0 0-.463 2.246l.181.328a21.21 21.21 0 0 0 4.333 5.53 21.231 21.231 0 0 0 5.529 4.333l.328.181a1.75 1.75 0 0 0 2.246-.463l1.768-2.273a.77.77 0 0 1 1.03-.167L29.654 25a.764.764 0 0 1 .232 1.027z"
                          transform="translate(-1 -1.018)"/>
                    <path id="Path_2006-8" data-name="Path 2006" class="cls-1"
                          d="M283.14 70.348a8.711 8.711 0 0 1 8.7 8.7.512.512 0 0 0 1.024 0 9.735 9.735 0 0 0-9.725-9.725.512.512 0 1 0 0 1.024z"
                          transform="translate(-266.45 -65.227)"/>
                    <path id="Path_2007-8" data-name="Path 2007" class="cls-1"
                          d="M283.14 121.548a5.637 5.637 0 0 1 5.63 5.63.512.512 0 1 0 1.024 0 6.661 6.661 0 0 0-6.654-6.654.512.512 0 1 0 0 1.024z"
                          transform="translate(-266.248 -113.573)"/>
                    <path id="Path_2008-8" data-name="Path 2008" class="cls-1"
                          d="M283.14 172.748a2.562 2.562 0 0 1 2.559 2.559.512.512 0 1 0 1.024 0 3.587 3.587 0 0 0-3.583-3.583.512.512 0 1 0 0 1.024z"
                          transform="translate(-266.189 -161.759)"/>
                </g>
            </g>
        </symbol>
    </defs>
    <use xlink:href="#phone" x="0" y="0"   fill="red" />
    <use xlink:href="#phone" x="0" y="30"  fill="green" />
    <use xlink:href="#phone" x="0" y="60"  fill="blue" />
</svg>
