<svg id="plus-button" xmlns="http://www.w3.org/2000/svg" viewBox="0 0 20 20.001"><defs><style>.cls-1{fill:#32435f}</style></defs><g id="Group_215" data-name="Group 215"><path id="Path_2048" data-name="Path 2048" class="cls-1" d="M10 20a10 10 0 1 1 10-10 10.012 10.012 0 0 1-10 10zm0-18.858A8.857 8.857 0 1 0 18.857 10 8.868 8.868 0 0 0 10 1.142z"/></g><g id="Group_216" data-name="Group 216" transform="translate(5.485 9.428)"><path id="Path_2049" data-name="Path 2049" class="cls-1" d="M16.976 15.784H9.09a.572.572 0 1 1 0-1.143h7.886a.572.572 0 0 1 0 1.143z" transform="translate(-8.518 -14.641)"/></g><g id="Group_217" data-name="Group 217" transform="translate(9.428 5.485)"><path id="Path_2050" data-name="Path 2050" class="cls-1" d="M15.213 17.547a.572.572 0 0 1-.572-.571V9.09a.572.572 0 1 1 1.143 0v7.886a.57.57 0 0 1-.571.571z" transform="translate(-14.641 -8.518)"/></g></svg>