<svg version="1.1" id="Шар_1" xmlns="http://www.w3.org/2000/svg" x="0" y="0" viewBox="0 0 275 50" xml:space="preserve"><style>.st0{fill:#eb9772}</style><switch><g><path class="st0" d="M53.1 19c-.2-.6-.7-1-1.2-1l-16.2-2.4L28.4.9C28.1.3 27.6 0 27 0c-.6 0-1.1.3-1.4.9l-7.3 14.7-16.4 2.3c-.6.1-1 .5-1.2 1.1-.2.6 0 1.2.4 1.6L13 32l-2.8 16.2c-.1.6.1 1.2.6 1.5.5.3 1.1.4 1.6.1L27 42.2l14.5 7.6c.5.3 1.1.2 1.6-.1.5-.3.7-.9.6-1.5L41 32l11.8-11.5c.4-.3.5-1 .3-1.5zM38.3 30.4c-.4.4-.5.9-.4 1.4l2.4 13.9-12.5-6.6c-.2-.1-.5-.2-.7-.2-.2 0-.5.1-.7.2l-12.5 6.6 2.4-13.9c.1-.5-.1-1-.5-1.4L5.5 20.5l14.1-2c.5-.1.9-.4 1.2-.8L27 5l6.2 12.6c.2.5.7.8 1.2.8l14 2-10.1 10zM108.5 19c-.2-.6-.7-1-1.2-1L91 15.6 83.7.9c-.2-.6-.8-.9-1.3-.9-.6 0-1.1.3-1.4.9l-7.3 14.7L57.3 18c-.6 0-1.1.4-1.3 1-.2.6 0 1.2.4 1.6l12 11.4-2.8 16.2c-.1.6.1 1.2.6 1.5.5.3 1.1.4 1.6.1l14.5-7.6 14.5 7.6c.5.3 1.1.2 1.6-.1.5-.3.7-.9.6-1.5L96.3 32l11.8-11.5c.4-.3.6-1 .4-1.5zM93.6 30.4c-.4.4-.5.9-.4 1.4l2.4 13.9-12.5-6.6c-.2-.1-.5-.2-.7-.2-.2 0-.5.1-.7.2l-12.5 6.6 2.4-13.9c.1-.5-.1-1-.5-1.4l-10.3-9.8 14.1-2c.5-.1.9-.4 1.2-.8L82.4 5l6.2 12.6c.2.5.7.8 1.2.8l14 2-10.2 10zM219 19c-.2-.6-.7-1-1.2-1l-16.2-2.4L194.3.9c-.3-.6-.8-.9-1.4-.9s-1.1.3-1.4.9l-7.3 14.7-16.4 2.4c-.6.1-1.1.5-1.2 1.1-.2.6 0 1.2.4 1.6L178.9 32l-2.8 16.2c-.1.6.1 1.2.6 1.5.5.3 1.1.4 1.6.1l14.5-7.6 14.5 7.6c.5.3 1.1.2 1.6-.1.5-.3.7-.9.6-1.5L206.9 32l11.8-11.5c.4-.3.5-1 .3-1.5zm-14.8 11.4c-.4.4-.5.9-.4 1.4l2.4 13.9-12.5-6.6c-.2-.1-.5-.2-.7-.2-.2 0-.5.1-.7.2l-12.5 6.6 2.4-13.9c.1-.5-.1-1-.5-1.4l-10.3-9.8 14.1-2c.5-.1.9-.4 1.2-.8L192.9 5l6.2 12.6c.2.5.7.8 1.2.8l14 2-10.1 10zM163.7 19c-.2-.6-.7-1-1.2-1l-16.2-2.4L139 .9c-.3-.5-.8-.9-1.4-.9s-1.1.3-1.4.9L129 15.6 112.6 18c-.6.1-1.1.5-1.2 1.1-.2.6 0 1.2.4 1.6L123.6 32l-2.8 16.2c-.1.6.1 1.2.6 1.5.5.3 1.1.4 1.6.1l14.5-7.6 14.5 7.6c.5.3 1.1.2 1.6-.1.5-.3.7-.9.6-1.5L151.6 32l11.8-11.5c.4-.3.5-1 .3-1.5zm-14.8 11.4c-.4.4-.5.9-.4 1.4l2.4 13.9-12.5-6.6c-.2-.1-.5-.2-.7-.2s-.5.1-.7.2l-12.5 6.6 2.4-13.9c.1-.5-.1-1-.5-1.4l-10.3-9.8 14.1-2c.5-.1.9-.4 1.2-.8L137.6 5l6.2 12.6c.2.5.7.8 1.2.8l14 2-10.1 10zM274.2 19c-.2-.6-.7-1-1.2-1l-16.2-2.4L249.5.9c-.3-.5-.8-.9-1.4-.9s-1.1.3-1.4.9l-7.3 14.7-16.4 2.3c-.6.1-1.1.5-1.2 1.1-.2.6 0 1.2.4 1.6L234.1 32l-2.8 16.2c-.1.6.1 1.2.6 1.5.5.3 1.1.4 1.6.1l14.5-7.6 14.5 7.6c.5.3 1.1.2 1.6-.1.5-.3.7-.9.6-1.5L262.1 32l11.8-11.5c.4-.3.5-1 .3-1.5zm-14.8 11.4c-.4.4-.5.9-.4 1.4l2.4 13.9-12.5-6.6c-.2-.1-.5-.2-.7-.2s-.5.1-.7.2L235 45.7l2.4-13.9c.1-.5-.1-1-.5-1.4l-10.3-9.8 14.1-2c.5-.1.9-.4 1.2-.8L248.1 5l6.2 12.6c.2.5.7.8 1.2.8l14 2-10.1 10z"/></g></switch></svg>