<svg version="1.1" id="Шар_1" xmlns="http://www.w3.org/2000/svg" x="0" y="0" viewBox="0 0 275 50" xml:space="preserve"><style>.st0{fill:#eb9772}</style><switch><g><path class="st0" d="M53.1 19c-.2-.6-.7-1-1.2-1l-16.2-2.4L28.4.9C28.1.3 27.6 0 27 0c-.6 0-1.1.3-1.4.9l-7.3 14.7-16.4 2.3c-.6.1-1 .5-1.2 1.1-.2.6 0 1.2.4 1.6L13 32l-2.8 16.2c-.1.6.1 1.2.6 1.5.5.3 1.1.4 1.6.1L27 42.2l14.5 7.6c.5.3 1.1.2 1.6-.1.5-.3.7-.9.6-1.5L41 32l11.8-11.5c.4-.3.5-1 .3-1.5zM108.5 19c-.2-.6-.7-1-1.2-1L91 15.6 83.7.9c-.2-.6-.8-.9-1.3-.9-.6 0-1.1.3-1.4.9l-7.3 14.7L57.3 18c-.6 0-1.1.4-1.3 1-.2.6 0 1.2.4 1.6l12 11.4-2.8 16.2c-.1.6.1 1.2.6 1.5.5.3 1.1.4 1.6.1l14.5-7.6 14.5 7.6c.5.3 1.1.2 1.6-.1.5-.3.7-.9.6-1.5L96.3 32l11.8-11.5c.4-.3.6-1 .4-1.5zM163.8 19c-.2-.6-.7-1-1.2-1l-16.2-2.4L139.1.9c-.3-.5-.8-.9-1.4-.9s-1.1.3-1.4.9L129 15.6 112.6 18c-.6.1-1.1.5-1.2 1.1-.2.6 0 1.2.4 1.6L123.7 32l-2.8 16.2c-.1.6.1 1.2.6 1.5.5.3 1.1.4 1.6.1l14.5-7.6 14.5 7.6c.5.3 1.1.2 1.6-.1.5-.3.7-.9.6-1.5L151.7 32l11.8-11.5c.4-.3.5-1 .3-1.5zM219.2 19c-.2-.6-.7-1-1.2-1l-16.2-2.4L194.5.9c-.3-.6-.9-.9-1.5-.9s-1.1.3-1.4.9l-7.3 14.7-16.3 2.3c-.6.1-1.1.5-1.2 1.1-.2.6 0 1.2.4 1.6L179.1 32l-2.8 16.2c-.1.6.1 1.2.6 1.5.5.3 1.1.4 1.6.1l14.5-7.6 14.5 7.6c.5.3 1.1.2 1.6-.1.5-.3.7-.9.6-1.5L207 32l11.8-11.5c.4-.3.6-1 .4-1.5zM274.2 19c-.2-.6-.7-1-1.2-1l-16.2-2.4L249.5.9c-.3-.5-.8-.9-1.4-.9s-1.1.3-1.4.9l-7.3 14.7-16.4 2.3c-.6.1-1.1.5-1.2 1.1-.2.6 0 1.2.4 1.6L234.1 32l-2.8 16.2c-.1.6.1 1.2.6 1.5.5.3 1.1.4 1.6.1l14.5-7.6 14.5 7.6c.5.3 1.1.2 1.6-.1.5-.3.7-.9.6-1.5L262.1 32l11.8-11.5c.4-.3.5-1 .3-1.5z"/></g></switch></svg>