<svg xmlns="http://www.w3.org/2000/svg" xmlns:xlink="http://www.w3.org/1999/xlink">
    <defs>
        <style>
            use {display: none}
            use:target {display: inline-block}
        </style>

        <symbol id="phone" viewBox="0 0 30 30">
            <g>
                <g id="call">
                    <path id="Path_2005" data-name="Path 2005" class="cls-1"
                          d="M30.213 24.162l-6.072-4.05a1.772 1.772 0 0 0-2.373.385L20 22.772a.756.756 0 0 1-.969.2l-.336-.185a20.333 20.333 0 0 1-5.3-4.162 20.417 20.417 0 0 1-4.162-5.3l-.184-.336a.757.757 0 0 1 .2-.973l2.273-1.768a1.773 1.773 0 0 0 .386-2.373l-4.052-6.07A1.763 1.763 0 0 0 5.48 1.27L2.941 2.8a3.582 3.582 0 0 0-1.633 2.12C.393 8.247 1.081 14 9.551 22.469c6.738 6.737 11.753 8.549 15.2 8.549a8.856 8.856 0 0 0 2.35-.307 3.578 3.578 0 0 0 2.12-1.633l1.527-2.538a1.764 1.764 0 0 0-.535-2.378zm-.327 1.865l-1.523 2.539a2.584 2.584 0 0 1-1.525 1.182c-3.076.844-8.449.145-16.58-7.987S1.427 8.256 2.272 5.18a2.588 2.588 0 0 1 1.183-1.527L5.994 2.13a.765.765 0 0 1 1.031.232l2.2 3.3 1.846 2.769a.77.77 0 0 1-.167 1.03l-2.273 1.771a1.75 1.75 0 0 0-.463 2.246l.181.328a21.21 21.21 0 0 0 4.333 5.53 21.231 21.231 0 0 0 5.529 4.333l.328.181a1.75 1.75 0 0 0 2.246-.463l1.768-2.273a.77.77 0 0 1 1.03-.167L29.654 25a.764.764 0 0 1 .232 1.027z"
                          transform="translate(-1 -1.018)"/>
                    <path id="Path_2006" data-name="Path 2006" class="cls-1"
                          d="M283.14 70.348a8.711 8.711 0 0 1 8.7 8.7.512.512 0 0 0 1.024 0 9.735 9.735 0 0 0-9.725-9.725.512.512 0 1 0 0 1.024z"
                          transform="translate(-266.45 -65.227)"/>
                    <path id="Path_2007" data-name="Path 2007" class="cls-1"
                          d="M283.14 121.548a5.637 5.637 0 0 1 5.63 5.63.512.512 0 1 0 1.024 0 6.661 6.661 0 0 0-6.654-6.654.512.512 0 1 0 0 1.024z"
                          transform="translate(-266.248 -113.573)"/>
                    <path id="Path_2008" data-name="Path 2008" class="cls-1"
                          d="M283.14 172.748a2.562 2.562 0 0 1 2.559 2.559.512.512 0 1 0 1.024 0 3.587 3.587 0 0 0-3.583-3.583.512.512 0 1 0 0 1.024z"
                          transform="translate(-266.189 -161.759)"/>
                </g>
                <g id="call-2">
                    <path id="Path_2005-2" data-name="Path 2005" class="cls-1"
                          d="M30.213 24.162l-6.072-4.05a1.772 1.772 0 0 0-2.373.385L20 22.772a.756.756 0 0 1-.969.2l-.336-.185a20.333 20.333 0 0 1-5.3-4.162 20.417 20.417 0 0 1-4.162-5.3l-.184-.336a.757.757 0 0 1 .2-.973l2.273-1.768a1.773 1.773 0 0 0 .386-2.373l-4.052-6.07A1.763 1.763 0 0 0 5.48 1.27L2.941 2.8a3.582 3.582 0 0 0-1.633 2.12C.393 8.247 1.081 14 9.551 22.469c6.738 6.737 11.753 8.549 15.2 8.549a8.856 8.856 0 0 0 2.35-.307 3.578 3.578 0 0 0 2.12-1.633l1.527-2.538a1.764 1.764 0 0 0-.535-2.378zm-.327 1.865l-1.523 2.539a2.584 2.584 0 0 1-1.525 1.182c-3.076.844-8.449.145-16.58-7.987S1.427 8.256 2.272 5.18a2.588 2.588 0 0 1 1.183-1.527L5.994 2.13a.765.765 0 0 1 1.031.232l2.2 3.3 1.846 2.769a.77.77 0 0 1-.167 1.03l-2.273 1.771a1.75 1.75 0 0 0-.463 2.246l.181.328a21.21 21.21 0 0 0 4.333 5.53 21.231 21.231 0 0 0 5.529 4.333l.328.181a1.75 1.75 0 0 0 2.246-.463l1.768-2.273a.77.77 0 0 1 1.03-.167L29.654 25a.764.764 0 0 1 .232 1.027z"
                          transform="translate(-1 -1.018)"/>
                    <path id="Path_2006-2" data-name="Path 2006" class="cls-1"
                          d="M283.14 70.348a8.711 8.711 0 0 1 8.7 8.7.512.512 0 0 0 1.024 0 9.735 9.735 0 0 0-9.725-9.725.512.512 0 1 0 0 1.024z"
                          transform="translate(-266.45 -65.227)"/>
                    <path id="Path_2007-2" data-name="Path 2007" class="cls-1"
                          d="M283.14 121.548a5.637 5.637 0 0 1 5.63 5.63.512.512 0 1 0 1.024 0 6.661 6.661 0 0 0-6.654-6.654.512.512 0 1 0 0 1.024z"
                          transform="translate(-266.248 -113.573)"/>
                    <path id="Path_2008-2" data-name="Path 2008" class="cls-1"
                          d="M283.14 172.748a2.562 2.562 0 0 1 2.559 2.559.512.512 0 1 0 1.024 0 3.587 3.587 0 0 0-3.583-3.583.512.512 0 1 0 0 1.024z"
                          transform="translate(-266.189 -161.759)"/>
                </g>
                <g id="call-3" data-name="call">
                    <path id="Path_2005-3" data-name="Path 2005" class="cls-1"
                          d="M30.213 24.162l-6.072-4.05a1.772 1.772 0 0 0-2.373.385L20 22.772a.756.756 0 0 1-.969.2l-.336-.185a20.333 20.333 0 0 1-5.3-4.162 20.417 20.417 0 0 1-4.162-5.3l-.184-.336a.757.757 0 0 1 .2-.973l2.273-1.768a1.773 1.773 0 0 0 .386-2.373l-4.052-6.07A1.763 1.763 0 0 0 5.48 1.27L2.941 2.8a3.582 3.582 0 0 0-1.633 2.12C.393 8.247 1.081 14 9.551 22.469c6.738 6.737 11.753 8.549 15.2 8.549a8.856 8.856 0 0 0 2.35-.307 3.578 3.578 0 0 0 2.12-1.633l1.527-2.538a1.764 1.764 0 0 0-.535-2.378zm-.327 1.865l-1.523 2.539a2.584 2.584 0 0 1-1.525 1.182c-3.076.844-8.449.145-16.58-7.987S1.427 8.256 2.272 5.18a2.588 2.588 0 0 1 1.183-1.527L5.994 2.13a.765.765 0 0 1 1.031.232l2.2 3.3 1.846 2.769a.77.77 0 0 1-.167 1.03l-2.273 1.771a1.75 1.75 0 0 0-.463 2.246l.181.328a21.21 21.21 0 0 0 4.333 5.53 21.231 21.231 0 0 0 5.529 4.333l.328.181a1.75 1.75 0 0 0 2.246-.463l1.768-2.273a.77.77 0 0 1 1.03-.167L29.654 25a.764.764 0 0 1 .232 1.027z"
                          transform="translate(-1 -1.018)"/>
                    <path id="Path_2006-3" data-name="Path 2006" class="cls-1"
                          d="M283.14 70.348a8.711 8.711 0 0 1 8.7 8.7.512.512 0 0 0 1.024 0 9.735 9.735 0 0 0-9.725-9.725.512.512 0 1 0 0 1.024z"
                          transform="translate(-266.45 -65.227)"/>
                    <path id="Path_2007-3" data-name="Path 2007" class="cls-1"
                          d="M283.14 121.548a5.637 5.637 0 0 1 5.63 5.63.512.512 0 1 0 1.024 0 6.661 6.661 0 0 0-6.654-6.654.512.512 0 1 0 0 1.024z"
                          transform="translate(-266.248 -113.573)"/>
                    <path id="Path_2008-3" data-name="Path 2008" class="cls-1"
                          d="M283.14 172.748a2.562 2.562 0 0 1 2.559 2.559.512.512 0 1 0 1.024 0 3.587 3.587 0 0 0-3.583-3.583.512.512 0 1 0 0 1.024z"
                          transform="translate(-266.189 -161.759)"/>
                </g>
                <g id="call-4" data-name="call">
                    <path id="Path_2005-4" data-name="Path 2005" class="cls-1"
                          d="M30.213 24.162l-6.072-4.05a1.772 1.772 0 0 0-2.373.385L20 22.772a.756.756 0 0 1-.969.2l-.336-.185a20.333 20.333 0 0 1-5.3-4.162 20.417 20.417 0 0 1-4.162-5.3l-.184-.336a.757.757 0 0 1 .2-.973l2.273-1.768a1.773 1.773 0 0 0 .386-2.373l-4.052-6.07A1.763 1.763 0 0 0 5.48 1.27L2.941 2.8a3.582 3.582 0 0 0-1.633 2.12C.393 8.247 1.081 14 9.551 22.469c6.738 6.737 11.753 8.549 15.2 8.549a8.856 8.856 0 0 0 2.35-.307 3.578 3.578 0 0 0 2.12-1.633l1.527-2.538a1.764 1.764 0 0 0-.535-2.378zm-.327 1.865l-1.523 2.539a2.584 2.584 0 0 1-1.525 1.182c-3.076.844-8.449.145-16.58-7.987S1.427 8.256 2.272 5.18a2.588 2.588 0 0 1 1.183-1.527L5.994 2.13a.765.765 0 0 1 1.031.232l2.2 3.3 1.846 2.769a.77.77 0 0 1-.167 1.03l-2.273 1.771a1.75 1.75 0 0 0-.463 2.246l.181.328a21.21 21.21 0 0 0 4.333 5.53 21.231 21.231 0 0 0 5.529 4.333l.328.181a1.75 1.75 0 0 0 2.246-.463l1.768-2.273a.77.77 0 0 1 1.03-.167L29.654 25a.764.764 0 0 1 .232 1.027z"
                          transform="translate(-1 -1.018)"/>
                    <path id="Path_2006-4" data-name="Path 2006" class="cls-1"
                          d="M283.14 70.348a8.711 8.711 0 0 1 8.7 8.7.512.512 0 0 0 1.024 0 9.735 9.735 0 0 0-9.725-9.725.512.512 0 1 0 0 1.024z"
                          transform="translate(-266.45 -65.227)"/>
                    <path id="Path_2007-4" data-name="Path 2007" class="cls-1"
                          d="M283.14 121.548a5.637 5.637 0 0 1 5.63 5.63.512.512 0 1 0 1.024 0 6.661 6.661 0 0 0-6.654-6.654.512.512 0 1 0 0 1.024z"
                          transform="translate(-266.248 -113.573)"/>
                    <path id="Path_2008-4" data-name="Path 2008" class="cls-1"
                          d="M283.14 172.748a2.562 2.562 0 0 1 2.559 2.559.512.512 0 1 0 1.024 0 3.587 3.587 0 0 0-3.583-3.583.512.512 0 1 0 0 1.024z"
                          transform="translate(-266.189 -161.759)"/>
                </g>
                <g id="call-5" data-name="call">
                    <path id="Path_2005-5" data-name="Path 2005" class="cls-1"
                          d="M30.213 24.162l-6.072-4.05a1.772 1.772 0 0 0-2.373.385L20 22.772a.756.756 0 0 1-.969.2l-.336-.185a20.333 20.333 0 0 1-5.3-4.162 20.417 20.417 0 0 1-4.162-5.3l-.184-.336a.757.757 0 0 1 .2-.973l2.273-1.768a1.773 1.773 0 0 0 .386-2.373l-4.052-6.07A1.763 1.763 0 0 0 5.48 1.27L2.941 2.8a3.582 3.582 0 0 0-1.633 2.12C.393 8.247 1.081 14 9.551 22.469c6.738 6.737 11.753 8.549 15.2 8.549a8.856 8.856 0 0 0 2.35-.307 3.578 3.578 0 0 0 2.12-1.633l1.527-2.538a1.764 1.764 0 0 0-.535-2.378zm-.327 1.865l-1.523 2.539a2.584 2.584 0 0 1-1.525 1.182c-3.076.844-8.449.145-16.58-7.987S1.427 8.256 2.272 5.18a2.588 2.588 0 0 1 1.183-1.527L5.994 2.13a.765.765 0 0 1 1.031.232l2.2 3.3 1.846 2.769a.77.77 0 0 1-.167 1.03l-2.273 1.771a1.75 1.75 0 0 0-.463 2.246l.181.328a21.21 21.21 0 0 0 4.333 5.53 21.231 21.231 0 0 0 5.529 4.333l.328.181a1.75 1.75 0 0 0 2.246-.463l1.768-2.273a.77.77 0 0 1 1.03-.167L29.654 25a.764.764 0 0 1 .232 1.027z"
                          transform="translate(-1 -1.018)"/>
                    <path id="Path_2006-5" data-name="Path 2006" class="cls-1"
                          d="M283.14 70.348a8.711 8.711 0 0 1 8.7 8.7.512.512 0 0 0 1.024 0 9.735 9.735 0 0 0-9.725-9.725.512.512 0 1 0 0 1.024z"
                          transform="translate(-266.45 -65.227)"/>
                    <path id="Path_2007-5" data-name="Path 2007" class="cls-1"
                          d="M283.14 121.548a5.637 5.637 0 0 1 5.63 5.63.512.512 0 1 0 1.024 0 6.661 6.661 0 0 0-6.654-6.654.512.512 0 1 0 0 1.024z"
                          transform="translate(-266.248 -113.573)"/>
                    <path id="Path_2008-5" data-name="Path 2008" class="cls-1"
                          d="M283.14 172.748a2.562 2.562 0 0 1 2.559 2.559.512.512 0 1 0 1.024 0 3.587 3.587 0 0 0-3.583-3.583.512.512 0 1 0 0 1.024z"
                          transform="translate(-266.189 -161.759)"/>
                </g>
                <g id="call-6" data-name="call">
                    <path id="Path_2005-6" data-name="Path 2005" class="cls-1"
                          d="M30.213 24.162l-6.072-4.05a1.772 1.772 0 0 0-2.373.385L20 22.772a.756.756 0 0 1-.969.2l-.336-.185a20.333 20.333 0 0 1-5.3-4.162 20.417 20.417 0 0 1-4.162-5.3l-.184-.336a.757.757 0 0 1 .2-.973l2.273-1.768a1.773 1.773 0 0 0 .386-2.373l-4.052-6.07A1.763 1.763 0 0 0 5.48 1.27L2.941 2.8a3.582 3.582 0 0 0-1.633 2.12C.393 8.247 1.081 14 9.551 22.469c6.738 6.737 11.753 8.549 15.2 8.549a8.856 8.856 0 0 0 2.35-.307 3.578 3.578 0 0 0 2.12-1.633l1.527-2.538a1.764 1.764 0 0 0-.535-2.378zm-.327 1.865l-1.523 2.539a2.584 2.584 0 0 1-1.525 1.182c-3.076.844-8.449.145-16.58-7.987S1.427 8.256 2.272 5.18a2.588 2.588 0 0 1 1.183-1.527L5.994 2.13a.765.765 0 0 1 1.031.232l2.2 3.3 1.846 2.769a.77.77 0 0 1-.167 1.03l-2.273 1.771a1.75 1.75 0 0 0-.463 2.246l.181.328a21.21 21.21 0 0 0 4.333 5.53 21.231 21.231 0 0 0 5.529 4.333l.328.181a1.75 1.75 0 0 0 2.246-.463l1.768-2.273a.77.77 0 0 1 1.03-.167L29.654 25a.764.764 0 0 1 .232 1.027z"
                          transform="translate(-1 -1.018)"/>
                    <path id="Path_2006-6" data-name="Path 2006" class="cls-1"
                          d="M283.14 70.348a8.711 8.711 0 0 1 8.7 8.7.512.512 0 0 0 1.024 0 9.735 9.735 0 0 0-9.725-9.725.512.512 0 1 0 0 1.024z"
                          transform="translate(-266.45 -65.227)"/>
                    <path id="Path_2007-6" data-name="Path 2007" class="cls-1"
                          d="M283.14 121.548a5.637 5.637 0 0 1 5.63 5.63.512.512 0 1 0 1.024 0 6.661 6.661 0 0 0-6.654-6.654.512.512 0 1 0 0 1.024z"
                          transform="translate(-266.248 -113.573)"/>
                    <path id="Path_2008-6" data-name="Path 2008" class="cls-1"
                          d="M283.14 172.748a2.562 2.562 0 0 1 2.559 2.559.512.512 0 1 0 1.024 0 3.587 3.587 0 0 0-3.583-3.583.512.512 0 1 0 0 1.024z"
                          transform="translate(-266.189 -161.759)"/>
                </g>
                <g id="call-7" data-name="call">
                    <path id="Path_2005-7" data-name="Path 2005" class="cls-1"
                          d="M30.213 24.162l-6.072-4.05a1.772 1.772 0 0 0-2.373.385L20 22.772a.756.756 0 0 1-.969.2l-.336-.185a20.333 20.333 0 0 1-5.3-4.162 20.417 20.417 0 0 1-4.162-5.3l-.184-.336a.757.757 0 0 1 .2-.973l2.273-1.768a1.773 1.773 0 0 0 .386-2.373l-4.052-6.07A1.763 1.763 0 0 0 5.48 1.27L2.941 2.8a3.582 3.582 0 0 0-1.633 2.12C.393 8.247 1.081 14 9.551 22.469c6.738 6.737 11.753 8.549 15.2 8.549a8.856 8.856 0 0 0 2.35-.307 3.578 3.578 0 0 0 2.12-1.633l1.527-2.538a1.764 1.764 0 0 0-.535-2.378zm-.327 1.865l-1.523 2.539a2.584 2.584 0 0 1-1.525 1.182c-3.076.844-8.449.145-16.58-7.987S1.427 8.256 2.272 5.18a2.588 2.588 0 0 1 1.183-1.527L5.994 2.13a.765.765 0 0 1 1.031.232l2.2 3.3 1.846 2.769a.77.77 0 0 1-.167 1.03l-2.273 1.771a1.75 1.75 0 0 0-.463 2.246l.181.328a21.21 21.21 0 0 0 4.333 5.53 21.231 21.231 0 0 0 5.529 4.333l.328.181a1.75 1.75 0 0 0 2.246-.463l1.768-2.273a.77.77 0 0 1 1.03-.167L29.654 25a.764.764 0 0 1 .232 1.027z"
                          transform="translate(-1 -1.018)"/>
                    <path id="Path_2006-7" data-name="Path 2006" class="cls-1"
                          d="M283.14 70.348a8.711 8.711 0 0 1 8.7 8.7.512.512 0 0 0 1.024 0 9.735 9.735 0 0 0-9.725-9.725.512.512 0 1 0 0 1.024z"
                          transform="translate(-266.45 -65.227)"/>
                    <path id="Path_2007-7" data-name="Path 2007" class="cls-1"
                          d="M283.14 121.548a5.637 5.637 0 0 1 5.63 5.63.512.512 0 1 0 1.024 0 6.661 6.661 0 0 0-6.654-6.654.512.512 0 1 0 0 1.024z"
                          transform="translate(-266.248 -113.573)"/>
                    <path id="Path_2008-7" data-name="Path 2008" class="cls-1"
                          d="M283.14 172.748a2.562 2.562 0 0 1 2.559 2.559.512.512 0 1 0 1.024 0 3.587 3.587 0 0 0-3.583-3.583.512.512 0 1 0 0 1.024z"
                          transform="translate(-266.189 -161.759)"/>
                </g>
                <g id="call-8" data-name="call">
                    <path id="Path_2005-8" data-name="Path 2005" class="cls-1"
                          d="M30.213 24.162l-6.072-4.05a1.772 1.772 0 0 0-2.373.385L20 22.772a.756.756 0 0 1-.969.2l-.336-.185a20.333 20.333 0 0 1-5.3-4.162 20.417 20.417 0 0 1-4.162-5.3l-.184-.336a.757.757 0 0 1 .2-.973l2.273-1.768a1.773 1.773 0 0 0 .386-2.373l-4.052-6.07A1.763 1.763 0 0 0 5.48 1.27L2.941 2.8a3.582 3.582 0 0 0-1.633 2.12C.393 8.247 1.081 14 9.551 22.469c6.738 6.737 11.753 8.549 15.2 8.549a8.856 8.856 0 0 0 2.35-.307 3.578 3.578 0 0 0 2.12-1.633l1.527-2.538a1.764 1.764 0 0 0-.535-2.378zm-.327 1.865l-1.523 2.539a2.584 2.584 0 0 1-1.525 1.182c-3.076.844-8.449.145-16.58-7.987S1.427 8.256 2.272 5.18a2.588 2.588 0 0 1 1.183-1.527L5.994 2.13a.765.765 0 0 1 1.031.232l2.2 3.3 1.846 2.769a.77.77 0 0 1-.167 1.03l-2.273 1.771a1.75 1.75 0 0 0-.463 2.246l.181.328a21.21 21.21 0 0 0 4.333 5.53 21.231 21.231 0 0 0 5.529 4.333l.328.181a1.75 1.75 0 0 0 2.246-.463l1.768-2.273a.77.77 0 0 1 1.03-.167L29.654 25a.764.764 0 0 1 .232 1.027z"
                          transform="translate(-1 -1.018)"/>
                    <path id="Path_2006-8" data-name="Path 2006" class="cls-1"
                          d="M283.14 70.348a8.711 8.711 0 0 1 8.7 8.7.512.512 0 0 0 1.024 0 9.735 9.735 0 0 0-9.725-9.725.512.512 0 1 0 0 1.024z"
                          transform="translate(-266.45 -65.227)"/>
                    <path id="Path_2007-8" data-name="Path 2007" class="cls-1"
                          d="M283.14 121.548a5.637 5.637 0 0 1 5.63 5.63.512.512 0 1 0 1.024 0 6.661 6.661 0 0 0-6.654-6.654.512.512 0 1 0 0 1.024z"
                          transform="translate(-266.248 -113.573)"/>
                    <path id="Path_2008-8" data-name="Path 2008" class="cls-1"
                          d="M283.14 172.748a2.562 2.562 0 0 1 2.559 2.559.512.512 0 1 0 1.024 0 3.587 3.587 0 0 0-3.583-3.583.512.512 0 1 0 0 1.024z"
                          transform="translate(-266.189 -161.759)"/>
                </g>
            </g>
        </symbol>
        <symbol id="like" viewBox="0 0 45.277 40">
            <g>
                <path
                    d="M41.973 3.929a11.4 11.4 0 0 0-18.208 1.31 17.36 17.36 0 0 0-1.127 1.825 17.345 17.345 0 0 0-1.127-1.827A11.4 11.4 0 0 0 3.3 3.929 13.724 13.724 0 0 0 0 13.045c0 3.767 1.471 7.272 4.629 11.027 2.822 3.357 6.883 6.817 11.585 10.824 1.752 1.493 3.564 3.037 5.493 4.725l.058.051a1.327 1.327 0 0 0 1.747 0l.058-.051c1.929-1.688 3.741-3.232 5.493-4.725 4.7-4.006 8.762-7.467 11.585-10.824 3.158-3.756 4.629-7.26 4.629-11.027a13.724 13.724 0 0 0-3.304-9.116zM27.342 32.877c-1.51 1.287-3.065 2.612-4.7 4.037a657.567 657.567 0 0 0-4.708-4.037C8.732 25.035 2.653 19.855 2.653 13.045a11.076 11.076 0 0 1 2.641-7.361 8.855 8.855 0 0 1 6.733-3.031 8.943 8.943 0 0 1 7.32 4.12 15.726 15.726 0 0 1 2.031 4.038 1.326 1.326 0 0 0 2.522 0 15.728 15.728 0 0 1 2.031-4.038 8.755 8.755 0 0 1 14.053-1.09 11.076 11.076 0 0 1 2.641 7.361c-.001 6.811-6.08 11.991-15.283 19.833z"/>
            </g>
        </symbol>
        <symbol id="balance" viewBox="0 0 51.53 40">
            <path
                d="M51.429 21.858L43.5 4.4a1.12 1.12 0 0 0-1.022-.662h-11.9a4.971 4.971 0 0 0-9.632 0H9.049a1.108 1.108 0 0 0-1.022.628L.1 21.813a1.549 1.549 0 0 0-.1.494 9.05 9.05 0 0 0 18.1.022 1.063 1.063 0 0 0-.1-.46L10.789 5.984H20.9a4.936 4.936 0 0 0 3.739 3.806v23.25h-5.004a3.56 3.56 0 0 0-3.525 3.525v2.358A1.121 1.121 0 0 0 17.277 40H34.14a1.128 1.128 0 0 0 1.167-1.078v-2.357a3.56 3.56 0 0 0-3.525-3.525h-4.895V9.789a4.968 4.968 0 0 0 3.739-3.806h10.115l-7.208 15.886a1.1 1.1 0 0 0-.1.46 9.05 9.05 0 1 0 18.1 0 1.113 1.113 0 0 0-.104-.471zM9.049 7.623l6.186 13.629H2.863zm0 21.555A6.891 6.891 0 0 1 2.335 23.5h13.416a6.869 6.869 0 0 1-6.702 5.677zm24.013 7.387v1.19H18.355v-1.19a1.309 1.309 0 0 1 1.28-1.28h12.147a1.309 1.309 0 0 1 1.28 1.28zm-7.3-28.886a2.717 2.717 0 1 1 2.717-2.717 2.717 2.717 0 0 1-2.714 2.717zm22.9 13.573H36.3l6.181-13.629zm-6.186 7.926a6.89 6.89 0 0 1-6.713-5.68h13.42a6.87 6.87 0 0 1-6.702 5.679zm0 0" />
        </symbol>
        <symbol id="clock" viewBox="0 0 372.96 372.96">
            <path
                d="M186.48 0C83.49 0 0 83.49 0 186.48s83.49 186.48 186.48 186.48 186.48-83.49 186.48-186.48C372.828 83.545 289.415.132 186.48 0zm8 356.56v-32.8a8 8 0 0 0-16 0v32.8C90.759 352.372 20.588 282.201 16.4 194.48h32.8a8 8 0 0 0 0-16H16.4C20.588 90.759 90.759 20.588 178.48 16.4v32.8a8 8 0 0 0 16 0V16.4c87.721 4.188 157.892 74.359 162.08 162.08h-32.8a8 8 0 0 0 0 16H356.64c-4.191 87.75-74.408 157.932-162.16 162.08z"/>
            <path
                d="M270.88 260.88l-76.4-77.68v-80.72a8 8 0 0 0-16 0v84a8 8 0 0 0 2.32 5.6l78.64 80a8.005 8.005 0 1 0 11.44-11.2z"/>
        </symbol>
        <symbol id="cart" viewBox="0 0 44.072 40">
            <g transform="translate(0 -21.231)">
                <g transform="translate(0 21.231)">
                    <path
                          d="M1.63 24.492H6.3l6.658 24.076a1.631 1.631 0 0 0 1.576 1.2H35a1.634 1.634 0 0 0 1.495-.978l7.446-17.12a1.65 1.65 0 0 0-.136-1.549 1.619 1.619 0 0 0-1.359-.734H19.837a1.63 1.63 0 0 0 0 3.261h20.109L33.913 46.5H15.761L9.1 22.427a1.631 1.631 0 0 0-1.576-1.2H1.63a1.63 1.63 0 1 0 0 3.261z"
                          transform="translate(0 -21.231)"/>
                    <path
                          d="M100.6 368.623a3.7 3.7 0 1 0-3.7-3.7 3.7 3.7 0 0 0 3.7 3.7z"
                          transform="translate(-87.607 -328.623)"/>
                    <path d="M341.606 368.544h.272a3.822 3.822 0 1 0-.272 0z"
                          transform="translate(-305.519 -328.544)"/>
                </g>
            </g>
        </symbol>
    </defs>

    <use id="phone-red" xlink:href="#phone" x="0" y="0"  fill="red" />
    <use id="phone-blue" xlink:href="#phone" x="0" y="0" fill="blue" />
    <use id="like-yellow" xlink:href="#like" x="0"  y="0" fill="yellow" />
    <use id="balance-yellow" xlink:href="#balance" x="0"  y="0" fill="yellow" />
    <use id="clock-yellow" xlink:href="#clock" x="0"  y="0" fill="yellow" />
    <use id="cart-yellow" xlink:href="#cart" x="0"  y="0" fill="yellow" />
</svg>
