<svg xmlns="http://www.w3.org/2000/svg" width="48.088" height="40"><path d="M47.323 4.653a19.042 19.042 0 0 1-3.316 1.118 10.338 10.338 0 0 0 2.729-4.346.542.542 0 0 0-.793-.631 19.132 19.132 0 0 1-5.069 2.094 1.292 1.292 0 0 1-.317.039 1.344 1.344 0 0 1-.888-.339 10.367 10.367 0 0 0-6.86-2.589 11.084 11.084 0 0 0-3.283.51 10.044 10.044 0 0 0-6.769 7.237 11.059 11.059 0 0 0-.246 3.817.371.371 0 0 1-.093.291.384.384 0 0 1-.286.13h-.037A27.184 27.184 0 0 1 3.411 1.998a.542.542 0 0 0-.888.07 10.379 10.379 0 0 0 1.687 12.6 9.29 9.29 0 0 1-2.365-.915.542.542 0 0 0-.805.467 10.38 10.38 0 0 0 6.055 9.563h-.221a9.328 9.328 0 0 1-1.747-.167.542.542 0 0 0-.618.7 10.39 10.39 0 0 0 8.207 7.067A19.131 19.131 0 0 1 2 34.639H.8a.794.794 0 0 0-.776.6.821.821 0 0 0 .393.907 28.455 28.455 0 0 0 14.3 3.855 28.845 28.845 0 0 0 12.219-2.592 26.983 26.983 0 0 0 8.94-6.7 29.371 29.371 0 0 0 5.474-9.168 28.963 28.963 0 0 0 1.861-10.032v-.158a1.764 1.764 0 0 1 .66-1.373 20.491 20.491 0 0 0 4.122-4.525.542.542 0 0 0-.671-.8z" fill="#76a9ea"/></svg>